<?xml version="1.0" encoding="utf-8"?>
<!-- Generator: Adobe Illustrator 19.1.0, SVG Export Plug-In . SVG Version: 6.00 Build 0)  -->
<svg version="1.1" id="Layer_1" xmlns="http://www.w3.org/2000/svg" xmlns:xlink="http://www.w3.org/1999/xlink" x="0px" y="0px"
	 viewBox="0 0 136.2 136.3" enable-background="new 0 0 136.2 136.3" xml:space="preserve">
<g>
	<line fill="#FFFFFF" x1="59.5" y1="24.3" x2="48.1" y2="25.2"/>
	<line fill="none" stroke="#00539B" stroke-width="0.4509" stroke-miterlimit="10" x1="59.5" y1="24.3" x2="48.1" y2="25.2"/>
	<line fill="#FFFFFF" x1="60.8" y1="26.1" x2="34.4" y2="34.1"/>
	<line fill="none" stroke="#00539B" stroke-width="0.4509" stroke-miterlimit="10" x1="60.8" y1="26.1" x2="34.4" y2="34.1"/>
	<line fill="#FFFFFF" x1="61.7" y1="27.5" x2="23.4" y2="52.6"/>
	<line fill="none" stroke="#00539B" stroke-width="0.4509" stroke-miterlimit="10" x1="61.7" y1="27.5" x2="23.4" y2="52.6"/>
	<line fill="#FFFFFF" x1="62.6" y1="29.3" x2="20.5" y2="66.2"/>
	<line fill="none" stroke="#00539B" stroke-width="0.4509" stroke-miterlimit="10" x1="62.6" y1="29.3" x2="20.5" y2="66.2"/>
	<line fill="#FFFFFF" x1="62.6" y1="32.5" x2="21.8" y2="77.1"/>
	<line fill="none" stroke="#00539B" stroke-width="0.4509" stroke-miterlimit="10" x1="62.6" y1="32.5" x2="21.8" y2="77.1"/>
	<line fill="#FFFFFF" x1="63.1" y1="35.2" x2="24.5" y2="87.7"/>
	<line fill="none" stroke="#00539B" stroke-width="0.4509" stroke-miterlimit="10" x1="63.1" y1="35.2" x2="24.5" y2="87.7"/>
	<line fill="#FFFFFF" x1="114.5" y1="80.1" x2="77.2" y2="32.5"/>
	<line fill="none" stroke="#00539B" stroke-width="0.4509" stroke-miterlimit="10" x1="114.5" y1="80.1" x2="77.2" y2="32.5"/>
	<polyline fill="#FFFFFF" points="77.2,32.5 77.2,32.5 116.1,68.5 	"/>
	<polyline fill="none" stroke="#00539B" stroke-width="0.4509" stroke-miterlimit="10" points="77.2,32.5 77.2,32.5 116.1,68.5 	"/>
	<line fill="#FFFFFF" x1="76.3" y1="36.1" x2="106.2" y2="97.3"/>
	<line fill="none" stroke="#00539B" stroke-width="0.4509" stroke-miterlimit="10" x1="76.3" y1="36.1" x2="106.2" y2="97.3"/>
	<line fill="#FFFFFF" x1="77.6" y1="35.6" x2="110.9" y2="88.7"/>
	<line fill="none" stroke="#00539B" stroke-width="0.4509" stroke-miterlimit="10" x1="77.6" y1="35.6" x2="110.9" y2="88.7"/>
	<line fill="#FFFFFF" x1="76.7" y1="29.3" x2="114.3" y2="54.9"/>
	<line fill="none" stroke="#00539B" stroke-width="0.4509" stroke-miterlimit="10" x1="76.7" y1="29.3" x2="114.3" y2="54.9"/>
	<line fill="#FFFFFF" x1="76.7" y1="28" x2="108.4" y2="42"/>
	<line fill="none" stroke="#00539B" stroke-width="0.4509" stroke-miterlimit="10" x1="76.7" y1="28" x2="108.4" y2="42"/>
	<line fill="#FFFFFF" x1="78.1" y1="27" x2="93.9" y2="28.7"/>
	<line fill="none" stroke="#00539B" stroke-width="0.4509" stroke-miterlimit="10" x1="78.1" y1="27" x2="93.9" y2="28.7"/>
	<path fill="none" stroke="#00539B" stroke-width="0.3221" stroke-miterlimit="10" d="M67.8,40.5L59.9,115 M68.1,116.1l0.5-74.3"/>
	<line fill="#FFFFFF" x1="50.8" y1="113.6" x2="68.5" y2="33.5"/>
	<line fill="none" stroke="#00539B" stroke-width="0.4509" stroke-miterlimit="10" x1="50.8" y1="113.6" x2="68.5" y2="33.5"/>
	<line fill="#FFFFFF" x1="69.7" y1="33.6" x2="77.7" y2="114.7"/>
	<line fill="none" stroke="#00539B" stroke-width="0.4509" stroke-miterlimit="10" x1="69.7" y1="33.6" x2="77.7" y2="114.7"/>
	<line fill="#FFFFFF" x1="66.3" y1="34.3" x2="30.4" y2="97.3"/>
	<line fill="none" stroke="#00539B" stroke-width="0.4509" stroke-miterlimit="10" x1="66.3" y1="34.3" x2="30.4" y2="97.3"/>
	<line fill="#FFFFFF" x1="72.1" y1="34.7" x2="88.7" y2="112"/>
	<line fill="none" stroke="#00539B" stroke-width="0.4509" stroke-miterlimit="10" x1="72.1" y1="34.7" x2="88.7" y2="112"/>
	<line fill="#FFFFFF" x1="74" y1="36.1" x2="98.7" y2="104.8"/>
	<line fill="none" stroke="#00539B" stroke-width="0.4509" stroke-miterlimit="10" x1="74" y1="36.1" x2="98.7" y2="104.8"/>
	<line fill="none" stroke="#00539B" stroke-width="0.3221" stroke-miterlimit="10" x1="66.3" y1="39" x2="39" y2="105.9"/>
	<path fill="#FFFFFF" d="M13.6,36.3c0.5-0.8,1.2-2.1,1.4-2.2c0.3-0.1,2.7-4.9,4.6-6.2c1.8-1.4,1.9-2.1,2.1-2.4
		c0.3-0.3,4.5-5,6.2-5.9c1.7-0.8,1.2-0.6,1.9-1.5c0.8-1,7.9-5.5,9.7-6.1c1.7-0.7,2.7-1.4,2.7-1.4s9.1-3.9,11.5-3.9
		c2.5,0,3-0.7,3.3-0.7c0.4,0,10.1-1.4,11.1-1c0,0,3.9-0.3,6,0.3c2.1,0.6,1.2,0.2,2.2,0.2c0.9,0,3.3,0.4,3.7,0.7
		c0.5,0.3,1.2,0.2,1.2,0.2s2.1,0.1,2.3,0.6c0.1,0.5,0.6,0.3,1,0.3c0.5,0,3.6,0.4,5.2,1.7c3.3,2.6,5.1,2.1,5.7,2.4
		c0.6,0.3,0.6-0.1,1.4,0.7c0.8,0.8,2.1,1.1,2.1,1.1s4.3,2.6,3.9,2.4c0.1,0.1,0.9,0.3,1.5,0.9c0.2,0.2,3.5,1.5,5.5,4.6c0,0,1,0.5,1,1
		c0.1,0.5,0.8,0.5,0.8,0.5s4.4,1.9,5.4,6.1c0.1,0.5,1.2,1.2,1.2,1.2s2.1,2.6,2.7,4.2c0.3,0.9,0.9,1.8,1.4,2.4l-18.1,0
		c0,0,0-0.1-0.1-0.1c-2-2.3-3.4-3.9-3.4-3.9s-1.4-1.4-2.1-1.8c-0.7-0.5-2.5-0.7-2.5-1.4c0-0.7-2.8-3.4-5.7-4.1c-2.9-0.7-4.4-2-4.4-2
		s-3-2.1-4.6-1.7c-1.5,0.5-3.3-0.2-3.8-0.9c-0.5-0.6-11.3-2.3-13.2-0.6c-1.8,1.5-5.2,0.5-5.2,0.5s-4.8,0.2-5.2,1.5
		c-0.5,1.4-2.5,1.2-2.8,1.2c-0.2,0-6.6,1.1-10.4,5.2c-3.8,4.1-4.5,3.4-5.1,4.1c-0.6,0.7-3.2,2.4-3.9,3.9c-0.1,0-0.1,0.1-0.1,0.1
		L13.6,36.3"/>
	<path fill="#FFFFFF" d="M31.8,36.3c-0.6,1.2-2.3,2.9-2.3,2.9s-5.2,6.3-5.2,10c0,3.6-1.5,2-2.3,5c-0.6,3-1.4,5-1.4,5s-1,5.5-0.8,8.6
		l-14.7,0c0.1-0.3,0.1-0.6,0.1-0.6c0-0.5,0.1-2.2,0.1-2.2s0-5.3,0.5-6c0.6-0.7,0.5-3.5,0.5-3.5s1.3-6.3,1.9-7.1
		C9,47.4,9,46.3,9,46.3s2.5-7,3.4-7.7c0.9-0.8,0.8-1.6,0.8-1.6s0.1-0.3,0.4-0.7L31.8,36.3"/>
	<path fill="#FFFFFF" d="M122.3,36.3c0.4,0.5,0.7,0.9,0.7,0.9s1.9,4.5,3,5.9c1.2,1.5,1,2.6,1,2.6s2.4,3.7,2.1,7.2
		c-0.1,1.2,0.6,2.1,0.6,2.1s0.4,3.7,0.7,5.3c0.6,3,0.1,1.6,0.1,1.6s-0.1,2.8,0.2,5.7l-14.6,0c0-0.1,0.1-3.9-0.3-5.4
		c-0.5-1.6-0.5-3-0.5-3s-0.6-4.3-1.4-5.7c-0.6-1.4-1.1-3.2-1.1-3.2s-1.6-4.8-2.7-5.9c-1.2-1.1-1.9-3.2-1.9-3.2s-2.2-2.9-4.3-5.2
		L122.3,36.3"/>
	<path fill="#FFFFFF" d="M19.9,67.7C20,68,20,68.2,20,68.4c0.5,2.7,0.2,4.1,0.2,4.1s0.5,1.8,1.1,4.1L6,78.1
		c-0.3-1.5-0.5-3.2-0.5-3.9c0-1.6,0.1-3-0.2-3.3c-0.2-0.3-0.1-2.1-0.1-3.2L19.9,67.7"/>
	<path fill="#FFFFFF" d="M121.6,99.1c-0.5,1-0.8,1.8-0.8,1.8s-0.9,1-2.3,4c-0.5,1.2-1.6,1.9-2.1,2.8c-0.5,0.9-3.9,2.3-3.9,3.5
		c0,0.3-2,1.5-2,1.5s-3.7,3.3-6.1,6.2c-0.7,0.8-1.2,0.6-1.6,1.1c-0.5,0.5-4.9,3.2-6.2,3.7c-1.4,0.5-2.7,1.2-2.7,1.2
		s-1.4,0.7-4.5,1.8l-1.9,0.7c-1.9,0.5-2.4,0.8-2.4,0.8s-6.7,1.9-8.2,1.8c-1.5-0.1-1.5,0-1.8,0.3c-0.3,0.2-7.2,0.5-8.4,0.2
		c-1.3-0.2-1.7-0.1-1.7-0.1s-5.7-0.1-6.7-0.7c-0.9-0.6-2.9-0.5-2.9-0.5s-6.4-1.2-7-1.9l-1.9-0.6c-1.9-0.5-3.2-1.1-5.2-2.3
		c-0.1,0-3.1-1.5-3.2-1.6c-2.3-1-4.4-2.6-4.4-2.6s-6.2-4.3-7.5-5.9c-1.4-1.5-1.5-1.3-1.9-1.5c-0.4-0.3-1.4-1.4-1.4-1.4
		s-1.4-1.4-1.9-2.2c-0.5-0.8-4-4.5-5.4-7c-0.9-1.5-1.5-2.6-1.9-3.2l17.5,0c3,3.4,3.8,3.7,3.8,3.7s5.4,5.2,7.2,5.9
		c1.9,0.7,4.3,2.3,4.3,2.3l2.8,1.8c0.4,0.6,1.4,1.4,4.4,1.6c3.2,0.3,12.4,1.2,14.4,1.7c2,0.5,4.7,0.5,5.4,0c0.8-0.5,3.5-1.5,4.5-1.2
		c1,0.4,3.7-0.1,3.7-0.1l3.4-1.2c2-1.4,5.4-1.6,5.4-1.6s0.9-0.3,1.4-1.1c0.5-0.8,2.6-2.4,3.1-2.2c0.5,0.3,3.2-2.6,3.4-3.3
		c0.2-1.3,4-3,4.8-4.2c0.5-0.8,1-1.4,1.5-2.1L121.6,99.1"/>
	<path fill="#FFFFFF" d="M13.7,99.1c-0.2-0.4-0.3-0.5-0.3-0.5s-0.6-1-1.4-2.5c-0.4-0.8-1-1.8-1.5-3.3c-1.2-3-1.5-3.3-1.5-3.3
		s-1.5-4.3-1.6-5.1c-0.1-0.8-0.3-2.6-0.6-2.8c-0.2-0.1-0.5-1.7-0.8-3.4l15.4-1.5c0.6,2.4,1.3,5.2,1.6,7.2c0.7,4.1,1.6,3.9,1.6,3.9
		s0.1,1.9,1.2,4.1c0.7,1.6,2,3.2,3.7,5.4c0.6,0.7,1.2,1.4,1.7,1.9L13.7,99.1"/>
	<path fill="#FFFFFF" d="M104.7,99.1c0.6-0.9,1.3-1.7,1.9-2.5c1.2-1.4,2.4-2.5,2.7-3.3c0.4-1,1.9-5.1,2.2-6c0.2-0.9,2.1-4.2,2.1-4.2
		s1.8-4.3,1.6-5.5c-0.3-1.1,0.5-2.5,0.5-2.5l0.5-4.7l0.1-2.8l14.6,0c0,0.4,0.1,0.8,0.1,1.3c0.1,1.2,0,1.9,0,1.9s-0.3,5.4-0.7,6.9
		c-0.5,1.5-0.3,1.7-0.3,1.7s-1,3.4-1.9,7.4c-0.3,1.4-1.5,1.5-1.5,2.1c0,0.7-1.7,3-3,5.5c-0.3,0.7-1.2,3-1.9,4.6L104.7,99.1"/>
	<path fill="none" stroke="#FFFFFF" stroke-width="0.6442" stroke-linecap="round" stroke-miterlimit="10" d="M21.3,76.6
		c0.6,2.4,1.3,5.2,1.6,7.2c0.7,4.1,1.6,3.9,1.6,3.9s0.1,1.9,1.2,4.1c0.7,1.6,2,3.2,3.7,5.4c4.3,5.2,5.5,5.7,5.5,5.7s5.4,5.2,7.2,5.9
		c1.9,0.7,4.3,2.3,4.3,2.3l2.8,1.8c0.4,0.6,1.4,1.4,4.4,1.6c3.2,0.3,12.4,1.2,14.4,1.7c2,0.5,4.7,0.5,5.4,0c0.8-0.5,3.5-1.5,4.5-1.2
		c1,0.4,3.7-0.1,3.7-0.1l3.4-1.2c2-1.4,5.4-1.6,5.4-1.6s0.9-0.3,1.4-1.1c0.5-0.8,2.6-2.4,3.1-2.2c0.5,0.3,3.2-2.6,3.4-3.3
		c0.2-1.3,4-3,4.8-4.2c1.2-1.7,2.3-3.2,3.4-4.6c1.2-1.4,2.4-2.5,2.7-3.3c0.4-1,1.9-5.1,2.2-6c0.2-0.9,2.1-4.2,2.1-4.2
		s1.8-4.3,1.6-5.5c-0.3-1.1,0.5-2.5,0.5-2.5l0.5-4.7l0.1-2.8c0,0,0.2-3.9-0.3-5.4c-0.5-1.6-0.5-3-0.5-3s-0.6-4.3-1.4-5.7
		c-0.6-1.4-1.1-3.2-1.1-3.2s-1.6-4.8-2.7-5.9c-1.2-1.1-1.9-3.2-1.9-3.2s-2.3-3-4.3-5.2c-2-2.3-3.4-3.9-3.4-3.9s-1.4-1.4-2.1-1.8
		c-0.7-0.5-2.5-0.7-2.5-1.4c0-0.7-2.8-3.4-5.7-4.1c-2.9-0.7-4.4-2-4.4-2s-3-2.1-4.6-1.7c-1.5,0.5-3.3-0.2-3.8-0.9
		c-0.5-0.6-11.3-2.3-13.2-0.6c-1.8,1.5-5.2,0.5-5.2,0.5s-4.8,0.2-5.2,1.5c-0.5,1.4-2.5,1.2-2.8,1.2c-0.2,0-6.6,1.1-10.4,5.2
		c-3.8,4.1-4.5,3.4-5.1,4.1c-0.6,0.7-3.2,2.4-3.9,3.9c-0.6,1.2-2.3,3-2.3,3s-5.2,6.3-5.2,10c0,3.6-1.5,2-2.3,5c-0.6,3-1.4,5-1.4,5
		s-1.1,6.6-0.6,9.3c0.5,2.7,0.2,4.1,0.2,4.1S20.7,74.3,21.3,76.6L6,78.1c-0.3-1.5-0.5-3.2-0.5-3.9c0-1.6,0.1-3-0.2-3.3
		c-0.2-0.3,0-3.3,0-3.8c0-0.5,0.1-2.2,0.1-2.2s0-5.3,0.5-6c0.6-0.7,0.5-3.5,0.5-3.5s1.3-6.3,1.9-7.1C9,47.4,9,46.3,9,46.3
		s2.5-7,3.4-7.7c0.9-0.8,0.8-1.6,0.8-1.6s1.5-2.8,1.8-2.9c0.3-0.1,2.7-4.9,4.6-6.2c1.8-1.4,1.9-2.1,2.1-2.4c0.3-0.3,4.5-5,6.2-5.9
		c1.7-0.8,1.2-0.6,1.9-1.5c0.8-1,7.9-5.5,9.7-6.1c1.7-0.7,2.7-1.4,2.7-1.4s9.1-3.9,11.5-3.9c2.5,0,3-0.7,3.3-0.7
		c0.4,0,10.1-1.4,11.1-1c0,0,3.9-0.3,6,0.3c2.1,0.6,1.2,0.2,2.2,0.2c0.9,0,3.3,0.4,3.7,0.7c0.5,0.3,1.2,0.2,1.2,0.2s2.1,0.1,2.3,0.6
		c0.1,0.5,0.6,0.3,1,0.3c0.5,0,3.6,0.4,5.2,1.7c3.3,2.6,5.1,2.1,5.7,2.4c0.6,0.3,0.6-0.1,1.4,0.7c0.8,0.8,2.1,1.1,2.1,1.1
		s4.3,2.6,3.9,2.4c0.1,0.1,0.9,0.3,1.5,0.9c0.2,0.2,3.5,1.5,5.5,4.6c0,0,1,0.5,1,1c0.1,0.5,0.8,0.5,0.8,0.5s4.4,1.9,5.4,6.1
		c0.1,0.5,1.2,1.2,1.2,1.2s2.1,2.6,2.7,4.2c0.6,1.6,2.1,3.3,2.1,3.3s1.9,4.5,3,5.9c1.2,1.5,1,2.6,1,2.6s2.4,3.7,2.1,7.2
		c-0.1,1.2,0.6,2.1,0.6,2.1s0.4,3.7,0.7,5.3c0.6,3,0.1,1.6,0.1,1.6s-0.1,3.7,0.3,7c0.1,1.2,0,1.9,0,1.9s-0.3,5.4-0.7,6.9
		c-0.5,1.5-0.3,1.7-0.3,1.7s-1,3.4-1.9,7.4c-0.3,1.4-1.5,1.5-1.5,2.1c0,0.7-1.7,3-3,5.5c-0.5,1.2-2.7,6.4-2.7,6.4s-0.9,1-2.3,4
		c-0.5,1.2-1.6,1.9-2.1,2.8c-0.5,0.9-3.9,2.3-3.9,3.5c0,0.3-2,1.5-2,1.5s-3.7,3.3-6.1,6.2c-0.7,0.8-1.2,0.6-1.6,1.1
		c-0.5,0.5-4.9,3.2-6.2,3.7c-1.4,0.5-2.7,1.2-2.7,1.2s-1.4,0.7-4.5,1.8l-1.9,0.7c-1.9,0.5-2.4,0.8-2.4,0.8s-6.7,1.9-8.2,1.8
		c-1.5-0.1-1.5,0-1.8,0.3c-0.3,0.2-7.2,0.5-8.4,0.2c-1.3-0.2-1.7-0.1-1.7-0.1s-5.7-0.1-6.7-0.7c-0.9-0.6-2.9-0.5-2.9-0.5
		s-6.4-1.2-7-1.9l-1.9-0.6c-1.9-0.5-3.2-1.1-5.2-2.3c-0.1,0-3.1-1.5-3.2-1.6c-2.3-1-4.4-2.6-4.4-2.6s-6.2-4.3-7.5-5.9
		c-1.4-1.5-1.5-1.3-1.9-1.5c-0.4-0.3-1.4-1.4-1.4-1.4s-1.4-1.4-1.9-2.2c-0.5-0.8-4-4.5-5.4-7c-1.4-2.5-2.2-3.7-2.2-3.7
		s-0.6-1-1.4-2.5c-0.4-0.8-1-1.8-1.5-3.3c-1.2-3-1.5-3.3-1.5-3.3s-1.5-4.3-1.6-5.1c-0.1-0.8-0.3-2.6-0.6-2.8
		c-0.2-0.1-0.5-1.7-0.8-3.4L21.3,76.6L21.3,76.6z"/>
	<path fill="#FFC425" d="M85.1,113.6c2-1.4,5.4-1.6,5.4-1.6s0.9-0.3,1.4-1.1c0.5-0.8,2.6-2.4,3.1-2.2c0.5,0.3,3.2-2.6,3.4-3.3
		c0.2-1.3,4-3,4.8-4.2c1.2-1.7,2.3-3.2,3.4-4.6c1.2-1.4,2.4-2.5,2.7-3.3c0.4-1,1.9-5.1,2.2-6c0.2-0.9,2.1-4.2,2.1-4.2
		s1.8-4.3,1.6-5.5c-0.3-1.1,0.5-2.5,0.5-2.5l0.5-4.7l0.1-2.8c0,0,0.2-3.9-0.3-5.4c-0.5-1.6-0.5-3-0.5-3s-0.6-4.3-1.4-5.7
		c-0.6-1.4-1.1-3.2-1.1-3.2s-1.6-4.8-2.7-5.9c-1.2-1.1-1.9-3.2-1.9-3.2s-2.3-3-4.3-5.2c-2-2.3-3.4-3.9-3.4-3.9s-1.4-1.4-2.1-1.8
		c-0.7-0.5-2.5-0.7-2.5-1.4c0-0.7-2.8-3.4-5.7-4.1c-2.9-0.7-4.4-2-4.4-2s-3-2.1-4.6-1.7c-1.5,0.5-3.3-0.2-3.8-0.9
		c-0.5-0.6-11.3-2.3-13.2-0.6c-1.8,1.5-5.2,0.5-5.2,0.5s-4.8,0.2-5.2,1.5c-0.5,1.4-2.5,1.2-2.8,1.2c-0.2,0-6.6,1.1-10.4,5.2
		c-3.8,4.1-4.5,3.4-5.1,4.1c-0.6,0.7-3.2,2.4-3.9,3.9c-0.6,1.2-2.3,3-2.3,3s-5.2,6.3-5.2,10c0,3.6-1.5,2-2.3,5c-0.6,3-1.4,5-1.4,5
		s-1.1,6.6-0.6,9.3c0.5,2.7,0.2,4.1,0.2,4.1s2.1,7.3,2.7,11.3c0.7,4.1,1.6,3.9,1.6,3.9s0.7,4.3,5,9.5c4.3,5.2,5.5,5.7,5.5,5.7
		s5.4,5.2,7.2,5.9c1.9,0.7,4.3,2.3,4.3,2.3l2.8,1.8c0.4,0.6,1.4,1.4,4.4,1.6c3.2,0.3,12.4,1.2,14.4,1.7c2,0.5,4.7,0.5,5.4,0
		c0.8-0.5,3.5-1.5,4.5-1.2c1,0.4,3.7-0.1,3.7-0.1L85.1,113.6L85.1,113.6z M87.5,127.5c-1.9,0.5-2.4,0.8-2.4,0.8s-6.7,1.9-8.2,1.8
		c-1.5-0.1-1.5,0-1.8,0.3c-0.3,0.2-7.2,0.5-8.4,0.2c-1.3-0.2-1.7-0.1-1.7-0.1s-5.7-0.1-6.7-0.7c-0.9-0.6-2.9-0.5-2.9-0.5
		s-6.4-1.2-7-1.9l-1.9-0.6c-1.9-0.5-3.2-1.1-5.2-2.3c-0.1,0-3.1-1.5-3.2-1.6c-2.3-1-4.4-2.6-4.4-2.6s-6.2-4.3-7.5-5.9
		c-1.4-1.5-1.5-1.3-1.9-1.5c-0.4-0.3-1.4-1.4-1.4-1.4s-1.4-1.4-1.9-2.2c-0.5-0.8-4-4.5-5.4-7c-1.4-2.5-2.2-3.7-2.2-3.7
		s-1.8-2.8-2.9-5.9c-1.2-3-1.5-3.3-1.5-3.3s-1.5-4.3-1.6-5.1c-0.1-0.8-0.3-2.6-0.6-2.8c-0.4-0.2-1.3-5.8-1.3-7.3
		c0-1.6,0.1-3-0.2-3.3c-0.2-0.3,0-3.3,0-3.8c0-0.5,0.1-2.2,0.1-2.2s0-5.3,0.5-6c0.6-0.7,0.5-3.5,0.5-3.5s1.3-6.3,1.9-7.1
		C9,47.4,9,46.3,9,46.3s2.5-7,3.4-7.7c0.9-0.8,0.8-1.6,0.8-1.6s1.5-2.8,1.8-2.9c0.3-0.1,2.7-4.9,4.6-6.2c1.8-1.4,1.9-2.1,2.1-2.4
		c0.3-0.3,4.5-5,6.2-5.9c1.7-0.8,1.2-0.6,1.9-1.5c0.8-1,7.9-5.5,9.7-6.1c1.7-0.7,2.7-1.4,2.7-1.4s9.1-3.9,11.5-3.9
		c2.5,0,3-0.7,3.3-0.7c0.4,0,10.1-1.4,11.1-1c0,0,3.9-0.3,6,0.3c2.1,0.6,1.2,0.2,2.2,0.2c0.9,0,3.3,0.4,3.7,0.7
		c0.5,0.3,1.2,0.2,1.2,0.2s2.1,0.1,2.3,0.6c0.1,0.5,0.6,0.3,1,0.3c0.5,0,3.6,0.4,5.2,1.7c3.3,2.6,5.1,2.1,5.7,2.4
		c0.6,0.3,0.6-0.1,1.4,0.7c0.8,0.8,2.1,1.1,2.1,1.1s3.8,2.3,3.4,2.1c0.1,0.1,1.4,0.6,2.1,1.2c0.2,0.2,3.5,1.5,5.5,4.6c0,0,1,0.5,1,1
		c0.1,0.5,0.8,0.5,0.8,0.5s4.4,1.9,5.4,6.1c0.1,0.5,1.2,1.2,1.2,1.2s2.1,2.6,2.7,4.2c0.6,1.6,2.1,3.3,2.1,3.3s1.9,4.5,3,5.9
		c1.2,1.5,1,2.6,1,2.6s2.4,3.7,2.1,7.2c-0.1,1.2,0.6,2.1,0.6,2.1s0.4,3.7,0.7,5.3c0.6,3,0.1,1.6,0.1,1.6s-0.1,3.7,0.3,7
		c0.1,1.2,0,1.9,0,1.9s-0.3,5.4-0.7,6.9c-0.5,1.5-0.3,1.7-0.3,1.7s-1,3.4-1.9,7.4c-0.3,1.4-1.5,1.5-1.5,2.1c0,0.7-1.7,3-3,5.5
		c-0.5,1.2-2.7,6.4-2.7,6.4s-0.9,1-2.3,4c-0.5,1.2-1.6,1.9-2.1,2.8c-0.5,0.9-3.9,2.3-3.9,3.5c0,0.3-2,1.5-2,1.5s-3.7,3.3-6.1,6.2
		c-0.7,0.8-1.2,0.6-1.6,1.1c-0.5,0.5-4.9,3.2-6.2,3.7c-1.4,0.5-2.7,1.2-2.7,1.2s-1.4,0.7-4.5,1.8L87.5,127.5"/>
	<g>
		<defs>
			<polyline id="SVGID_1_" points="0,0 0,136.3 136.2,136.3 136.2,0 			"/>
		</defs>
		<clipPath id="SVGID_2_">
			<use xlink:href="#SVGID_1_"  overflow="visible"/>
		</clipPath>
		
			<path clip-path="url(#SVGID_2_)" fill="none" stroke="#00539B" stroke-width="1.2883" stroke-linecap="round" stroke-miterlimit="10" d="
			M85.1,113.6c2-1.4,5.4-1.6,5.4-1.6s0.9-0.3,1.4-1.1c0.5-0.8,2.6-2.4,3.1-2.2c0.5,0.3,3.2-2.6,3.4-3.3c0.2-1.3,4-3,4.8-4.2
			c1.2-1.7,2.3-3.2,3.4-4.6c1.2-1.4,2.4-2.5,2.7-3.3c0.4-1,1.9-5.1,2.2-6c0.2-0.9,2.1-4.2,2.1-4.2s1.8-4.3,1.6-5.5
			c-0.3-1.1,0.5-2.5,0.5-2.5l0.5-4.7l0.1-2.8c0,0,0.2-3.9-0.3-5.4c-0.5-1.6-0.5-3-0.5-3s-0.6-4.3-1.4-5.7c-0.6-1.4-1.1-3.2-1.1-3.2
			s-1.6-4.8-2.7-5.9c-1.2-1.1-1.9-3.2-1.9-3.2s-2.3-3-4.3-5.2c-2-2.3-3.4-3.9-3.4-3.9s-1.4-1.4-2.1-1.8c-0.7-0.5-2.5-0.7-2.5-1.4
			c0-0.7-2.8-3.4-5.7-4.1c-2.9-0.7-4.4-2-4.4-2s-3-2.1-4.6-1.7c-1.5,0.5-3.3-0.2-3.8-0.9c-0.5-0.6-11.3-2.3-13.2-0.6
			c-1.8,1.5-5.2,0.5-5.2,0.5s-4.8,0.2-5.2,1.5c-0.5,1.4-2.5,1.2-2.8,1.2c-0.2,0-6.6,1.1-10.4,5.2c-3.8,4.1-4.5,3.4-5.1,4.1
			c-0.6,0.7-3.2,2.4-3.9,3.9c-0.6,1.2-2.3,3-2.3,3s-5.2,6.3-5.2,10c0,3.6-1.5,2-2.3,5c-0.6,3-1.4,5-1.4,5s-1.1,6.6-0.6,9.3
			c0.5,2.7,0.2,4.1,0.2,4.1s2.1,7.3,2.7,11.3c0.7,4.1,1.6,3.9,1.6,3.9s0.7,4.3,5,9.5c4.3,5.2,5.5,5.7,5.5,5.7s5.4,5.2,7.2,5.9
			c1.9,0.7,4.3,2.3,4.3,2.3l2.8,1.8c0.4,0.6,1.4,1.4,4.4,1.6c3.2,0.3,12.4,1.2,14.4,1.7c2,0.5,4.7,0.5,5.4,0
			c0.8-0.5,3.5-1.5,4.5-1.2c1,0.4,3.7-0.1,3.7-0.1L85.1,113.6L85.1,113.6z M87.5,127.5c-1.9,0.5-2.4,0.8-2.4,0.8s-6.7,1.9-8.2,1.8
			c-1.5-0.1-1.5,0-1.8,0.3c-0.3,0.2-7.2,0.5-8.4,0.2c-1.3-0.2-1.7-0.1-1.7-0.1s-5.7-0.1-6.7-0.7c-0.9-0.6-2.9-0.5-2.9-0.5
			s-6.4-1.2-7-1.9l-1.9-0.6c-1.9-0.5-3.2-1.1-5.2-2.3c-0.1,0-3.1-1.5-3.2-1.6c-2.3-1-4.4-2.6-4.4-2.6s-6.2-4.3-7.5-5.9
			c-1.4-1.5-1.5-1.3-1.9-1.5c-0.4-0.3-1.4-1.4-1.4-1.4s-1.4-1.4-1.9-2.2c-0.5-0.8-4-4.5-5.4-7c-1.4-2.5-2.2-3.7-2.2-3.7
			s-1.8-2.8-2.9-5.9c-1.2-3-1.5-3.3-1.5-3.3s-1.5-4.3-1.6-5.1c-0.1-0.8-0.3-2.6-0.6-2.8c-0.4-0.2-1.3-5.8-1.3-7.3
			c0-1.6,0.1-3-0.2-3.3c-0.2-0.3,0-3.3,0-3.8c0-0.5,0.1-2.2,0.1-2.2s0-5.3,0.5-6c0.6-0.7,0.5-3.5,0.5-3.5s1.3-6.3,1.9-7.1
			C9,47.4,9,46.3,9,46.3s2.5-7,3.4-7.7c0.9-0.8,0.8-1.6,0.8-1.6s1.5-2.8,1.8-2.9c0.3-0.1,2.7-4.9,4.6-6.2c1.8-1.4,1.9-2.1,2.1-2.4
			c0.3-0.3,4.5-5,6.2-5.9c1.7-0.8,1.2-0.6,1.9-1.5c0.8-1,7.9-5.5,9.7-6.1c1.7-0.7,2.7-1.4,2.7-1.4s9.1-3.9,11.5-3.9
			c2.5,0,3-0.7,3.3-0.7c0.4,0,10.1-1.4,11.1-1c0,0,3.9-0.3,6,0.3c2.1,0.6,1.2,0.2,2.2,0.2c0.9,0,3.3,0.4,3.7,0.7
			c0.5,0.3,1.2,0.2,1.2,0.2s2.1,0.1,2.3,0.6c0.1,0.5,0.6,0.3,1,0.3c0.5,0,3.6,0.4,5.2,1.7c3.3,2.6,5.1,2.1,5.7,2.4
			c0.6,0.3,0.6-0.1,1.4,0.7c0.8,0.8,2.1,1.1,2.1,1.1s3.8,2.3,3.4,2.1c0.1,0.1,1.4,0.6,2.1,1.2c0.2,0.2,3.5,1.5,5.5,4.6
			c0,0,1,0.5,1,1c0.1,0.5,0.8,0.5,0.8,0.5s4.4,1.9,5.4,6.1c0.1,0.5,1.2,1.2,1.2,1.2s2.1,2.6,2.7,4.2c0.6,1.6,2.1,3.3,2.1,3.3
			s1.9,4.5,3,5.9c1.2,1.5,1,2.6,1,2.6s2.4,3.7,2.1,7.2c-0.1,1.2,0.6,2.1,0.6,2.1s0.4,3.7,0.7,5.3c0.6,3,0.1,1.6,0.1,1.6
			s-0.1,3.7,0.3,7c0.1,1.2,0,1.9,0,1.9s-0.3,5.4-0.7,6.9c-0.5,1.5-0.3,1.7-0.3,1.7s-1,3.4-1.9,7.4c-0.3,1.4-1.5,1.5-1.5,2.1
			c0,0.7-1.7,3-3,5.5c-0.5,1.2-2.7,6.4-2.7,6.4s-0.9,1-2.3,4c-0.5,1.2-1.6,1.9-2.1,2.8c-0.5,0.9-3.9,2.3-3.9,3.5c0,0.3-2,1.5-2,1.5
			s-3.7,3.3-6.1,6.2c-0.7,0.8-1.2,0.6-1.6,1.1c-0.5,0.5-4.9,3.2-6.2,3.7c-1.4,0.5-2.7,1.2-2.7,1.2s-1.4,0.7-4.5,1.8L87.5,127.5
			L87.5,127.5z"/>
	</g>
	<path fill="#FFC425" d="M36.5,36.2l-1.4,59.7L63.6,97c0,0,0.5-3.2,3.9-3.2c3.4,0,4.1,2.7,3.9,3.4c-0.3,0.6,26.1,1.4,26.1,1.4
		L99.9,38c0,0-2.7,0.9-3.6,0c-0.9-0.9-3.2-0.6-3.2-0.6s-2.3,0.9-3.4,1.1c-1.2,0.3-5.2,0.7-6.6-0.5c-1.4-1.1-5.7-0.9-7-0.9
		c-1.4,0-5,1.2-5.2,1.8c-0.3,0.7-2.5,1.6-2.3,2.5c0.2,0.9-1.4-2.3-2.3-3c-0.9-0.6-2.7-2.3-3.6-2c-0.9,0.2-6.8-0.5-8.2,0
		c-1.4,0.5-4.5,0.6-5.7,0.5c-1.1-0.3-6.6,0.5-7.5-0.3c-0.9-0.6-2-0.5-3-0.6C37.6,35.8,36.5,36.2,36.5,36.2"/>
	<path fill="none" stroke="#00539B" stroke-width="0.5798" stroke-miterlimit="10" d="M36.5,36.2l-1.4,59.7L63.6,97
		c0,0,0.5-3.2,3.9-3.2c3.4,0,4.1,2.7,3.9,3.4c-0.3,0.6,26.1,1.4,26.1,1.4L99.9,38c0,0-2.7,0.9-3.6,0c-0.9-0.9-3.2-0.6-3.2-0.6
		s-2.3,0.9-3.4,1.1c-1.2,0.3-5.2,0.7-6.6-0.5c-1.4-1.1-5.7-0.9-7-0.9c-1.4,0-5,1.2-5.2,1.8c-0.3,0.7-2.5,1.6-2.3,2.5
		c0.2,0.9-1.4-2.3-2.3-3c-0.9-0.6-2.7-2.3-3.6-2c-0.9,0.2-6.8-0.5-8.2,0c-1.4,0.5-4.5,0.6-5.7,0.5c-1.1-0.3-6.6,0.5-7.5-0.3
		c-0.9-0.6-2-0.5-3-0.6C37.6,35.8,36.5,36.2,36.5,36.2L36.5,36.2z"/>
	<path fill="none" stroke="#00539B" stroke-width="0.3221" stroke-miterlimit="10" d="M68.7,41.4l-1.2,52.4 M46.9,41l5.4,0l0,6.8
		l-5.4,0L46.9,41L46.9,41z"/>
	<path fill="none" stroke="#00539B" stroke-width="0.1933" stroke-miterlimit="10" d="M38.5,36l-0.9,58L60.7,95l3.2,1.1 M39.6,36.2
		l-0.7,56.9l22.7,1.1c0,0,2.1,0.7,2.3,1.8 M40.8,36.9l-0.5,55.3l22.2,1.4c0,0,2,0.9,2,1.5 M42.3,36.9l-0.5,54.4l21.6,0.9
		c0,0,2.9,0.7,2.4,1.6"/>
	<path fill="none" stroke="#00539B" stroke-width="0.2577" stroke-miterlimit="10" d="M44.1,37.6l-0.9,52.8l20.9,0.9
		c0,0,2.3,0.7,2.3,1.9"/>
	<path fill="none" stroke="#00539B" stroke-width="0.1933" stroke-miterlimit="10" d="M48.2,38.9l3.4-0.2 M53.9,38.5l1.8-0.2
		 M57.5,38.5l2.5-0.2 M61.8,38.7c0,0,1.6,0.5,2.5,1.1 M65.9,41c0,0,2.3,2.5,2.3,3.2 M53,41.2l1.4-0.2 M55.5,41l1.9,0 M58.2,41l2,0.5
		 M61.1,41.2c0,0,2.1,0.5,2.3,1.2 M65,42.8c0,0,2.5,1.8,2.8,2.5 M55.3,43l2.1,0 M58.7,43.2l1.5,0.5 M62.3,43.9l1.8,0.9 M65.7,45.3
		l2.3,2 M96.8,38l-1.4,57.1L76.6,95c0,0-4.6,0.5-4.6,1.4 M95.7,38l-1.1,56l-18.7,0.2c0,0-2.4,0.3-3.4,1.2 M94.8,37.6l-1.1,55.6
		l-18.2,0.5c0,0-3.4,0.5-4.1,1.8 M93.9,37.6l-1.4,54.6l-18.5,1c0,0-3,0.6-3.4,2 M54.8,45.5l1.1,0 M57.3,45.5l2.3,0.3 M60.9,45.9
		l3.2,0.7 M65,47.1c0,0,2.5,0.7,3.2,3 M46.4,50.2l0.9,0 M48.4,50.2l4.1,0 M53.7,50.5l1.4-0.5 M56.6,50.2l2.7,0.3 M60.9,50.7
		c0,0,3-0.2,4.1,1.4 M65.9,52.1c0,0,2.1,1.2,2.1,2.1 M53.7,47.8l2.5-0.3 M58,47.8c0.7,0,2.5,0.5,2.5,0.5 M62.1,48l2,0.9 M65,49.3
		c0,0,3.2,1.6,3.2,2.5 M46.6,52.3h1.6 M49.8,52.3l5.7,0 M57.1,52.3h1.4 M60.2,52.5c0,0,3.7,0.5,3.9,1.2 M65.3,54.1
		c0,0,2.3,0.5,2.7,2.1 M46.2,54.4l1.4,0 M48.4,54.4l3.9,0.2 M53.7,54.6h1.2 M56.9,54.8l2,0 M60.2,54.8c0,0,3.4,0.6,3.9,1.4
		 M65.3,56.6c0,0,2,0.6,2.3,1.4 M46.4,56.6l3.3,0 M51.7,56.4l3.6,0 M56.4,56.4l1.2,0.3 M59.8,56.8c0,0,4.8,0.7,5,1.4 M66.2,58.6
		c0,0,2.1,1.4,1.8,2.1 M46,58.6l2,0 M49.2,58.4l5.2,0 M55.3,58.6l1.6,0.3 M59.1,59.1c0,0,5.9,0.5,5.9,1.4 M65.7,60.7
		c0,0,1.8,0.7,2.3,2.3 M45.7,60c0,0,2.2,0.3,2.5,0.3 M49.3,60.4c-0.2,0.3,3.7,0.1,4.8,0.5 M55.3,60.7l1,0.1 M58,61.3
		c2.6-0.5,9.1,1.8,10.2,3.4 M45.3,62.6c0-0.6,3.5,0,4.2,0.1 M50.6,62.9l1.8,0 M54,62.9c0,0,1.7-0.3,2.1,0.3 M57.1,63.1
		c0.3,0.1,4.1-0.1,5.7,1.4 M64.4,64.4c0,0,2.3,0.5,3.4,2.1 M46.1,64.8l1.3,0 M48.8,64.8c0,0,4.6-0.4,4.8,0.2 M55.4,64.9l2.9,0.6
		 M59.3,65.1c0,0,4.2,0.8,4.3,1.4 M64.4,66.4c0,0,2.4,0.6,3.4,1.9 M45.2,66.7l1.4,0.3 M47.5,67.2c0,0,4.9-0.3,5.8,0.3 M54.5,67.4
		c0,0,1.5-0.2,1.8,0.1 M57.7,67.2c0,0,4.1,0,5.7,1.1 M64,68.4c0,0,2.8,0.3,3.9,2.1 M45.7,69c0,0,3.3-0.3,2.5-0.3 M50.2,68.7
		c2.2,0.3,2.8,0.1,3.5,0.3 M54.8,68.5l1,0.1 M57.5,69.1c2.6-0.5,9.1,1.9,10.2,3.4 M44.8,70.5c0-0.6,3.5,0,4.2,0.1 M50.2,70.8H52
		 M53.6,70.7c0,0,1.7-0.2,2.1,0.3 M56.6,70.9c0.3,0.1,4.1-0.1,5.7,1.4 M64,72.2c0,0,2.3,0.6,3.4,2.1 M45.6,72.6h1.3 M48.4,72.9
		c0,0,4.4-0.2,4.6,0.4 M54.9,72.7l2.9,0.6 M58.9,72.9c0,0,4.2,0.8,4.3,1.4 M63.9,74.2c0,0,2.4,0.5,3.3,1.9 M45.3,74.9l1.4,0.3
		 M47.9,75c0,0,4.1-0.3,5,0.3 M54,75.2c0,0,1.5-0.2,1.8,0.1 M57.2,75c0,0,4.1,0,5.7,1.2 M63.5,76.2c0,0,2.8,0.4,3.9,2.1 M45,76.6
		c0,0,2.1,0.3,2.4,0.3 M48.6,76.9c0.5-0.3,2.7,0.3,4.1,0.5 M54.5,77.2l1,0.1 M57.2,77.8c2.6-0.5,9.1,1.8,10.2,3.4 M44.5,79.2
		c0-0.6,3.5,0,4.2,0.1 M49.8,79.5l1.9,0 M53.2,79.4c0,0,1.7-0.3,2.2,0.3 M56.3,79.6c0.3,0.1,4.1-0.1,5.7,1.4 M63.6,80.8
		c0,0,2.3,0.6,3.4,2.2 M45.3,81.4h1.2 M48,81.4c0,0,3.4-0.3,3.7,0.3 M54.6,81.4l1.8,0.4 M58.6,81.7c0,0,4.2,0.8,4.3,1.4 M63.5,82.9
		c0,0,2.8,0.9,3.7,2.7 M49.3,83.7c0,0,2.3-0.2,3.2,0.4 M53.7,83.9c0,0,1.6-0.3,1.8,0.1 M56.9,84.3c0,0,4-0.6,5.6,0.6 M63.2,85
		c0,0,2.8,1.2,4,3 M54.7,87.1l1.5,0 M57.7,86.9c0,0,3.9,0.2,4.9,1.4 M63.5,87.9c0,0,2.8,0,3.7,3.2 M57.1,89c0,0,3.6-0.6,5.3,1.2
		 M64,90.2c0,0,2.8,1,3.1,2.1"/>
	<path fill="none" stroke="#00539B" stroke-width="0.3221" stroke-miterlimit="10" d="M93.1,37.4l-1.6,54.2l-16.1,0.9
		c0,0-2.7-0.3-5.2,2.1"/>
	<path fill="none" stroke="#00539B" stroke-width="0.1933" stroke-miterlimit="10" d="M71.6,40.1c0,0,1.9-0.8,4.4-0.7 M77,39.4
		c0,0,1.8-0.1,2.1,0.1 M80.3,39.8c0,0,2.5,0,3,0.7 M84.2,40.7c0,0,1.1,0.6,2.4,0 M87.5,40.7c0,0,1.5,0,2.1-0.5 M90.8,39.9
		c0,0,1,0.1,1.5-0.8 M68.9,42c0,0-0.6-0.7,1.8-1.4 M68.7,44l1-0.5 M71.1,42.8c0,0,2.6-1.4,4.2-0.9 M76.3,42.1c0,0,1.9-0.3,2.1,0.1
		 M79.6,42.6c0,0,2.2,0.1,2.6,0.4 M83.7,43.1c0,0,1.4,0.4,2.6-0.1 M87.1,42.9c0,0,0.6,0.1,2.1-0.3 M90.3,42.8c0,0,0.6,0.5,1.7-0.5
		 M68.7,46.4c0,0,1.2-1.7,2.6-1.7c1.7,0,3-0.4,3.9-0.1 M76.6,44.5h1.4 M79.7,44.8l1.7,0.6 M82.5,45.4l2.5-0.1 M86.6,45.2l2.1-0.2
		 M90.1,44.8c0,0,1.5-0.3,1.8-0.6 M68.7,48.3c0,0,1.6-1.5,2.6-1.5c1,0,2.7-0.1,2.8,0.2 M75.1,47l2.3,0.3 M78.6,47.4h1.5 M82,47.7
		l2.1-0.3 M85.3,47.5c0,0,1.8,0,2.2-0.3 M88.8,47.3c0,0,2.8-0.5,3.6-1.2 M68.5,50.1c0,0,1.4-1.2,2.7-1.3c1.4-0.1,2.1-0.4,2.7-0.1
		c0.8,0.3,0.5,0.2,0.5,0.2 M75.6,48.9l1.5,0.3 M78.4,49.2c0,0,1.6,0.6,1.9,0.4 M81.4,49.8c0,0,1.6,0.1,2.3-0.2 M84.8,49.7
		c0,0,1.9,0,2.8-0.3 M89.2,49.2c0,0,2.5-0.1,2.8-0.5 M68.8,52.9c0,0,1.3-1.7,2.6-1.7c1.7,0,3-0.3,3.9-0.1 M76.7,51h1.4 M79.9,51.3
		l1.7,0.6 M82.6,51.9l2.5-0.1 M86.8,51.6l2.1-0.2 M90.2,51.3c0,0,1.5-0.2,1.8-0.6 M68.9,54.8c0,0,1.6-1.6,2.6-1.6
		c1,0,2.8-0.1,2.8,0.3 M75.3,53.5l2.3,0.3 M78.8,53.9h1.5 M82.2,54.1l2.1-0.2 M85.5,54c0,0,1.8,0,2.1-0.2 M89,53.8
		c0,0,2.8-0.6,3.6-1.3 M68.7,56.5c0,0,1.4-1.2,2.8-1.2c1.4-0.1,2.1-0.4,2.7-0.1c0.8,0.3,0.5,0.2,0.5,0.2 M75.8,55.3l1.4,0.3
		 M78.6,55.7c0,0,1.5,0.6,1.9,0.3 M81.6,56.3c0,0,1.6,0.1,2.3-0.3 M85,56.2c0,0,1.9,0,2.7-0.3 M89.3,55.7c0,0,2.5-0.1,2.8-0.5
		 M68.4,58.6l1-0.5 M70.9,57.4c0,0,2.6-1.4,4.2-0.9 M76,56.8c0,0,1.9-0.3,2.1,0.1 M79.4,57.3c0,0,2.1,0.1,2.6,0.4 M83.5,57.7
		c0,0,1.4,0.4,2.6-0.1 M86.9,57.5c0,0,0.6,0.1,2.1-0.3 M90.1,57.4c0,0,0.7,0.5,1.7-0.5 M68.4,61c0,0,1.2-1.7,2.6-1.7
		c1.7,0,3-0.3,3.8-0.1 M76.3,59.1l1.4,0 M79.6,59.5l1.7,0.6 M82.3,60l2.5-0.1 M86.4,59.8l2.1-0.2 M89.9,59.5c0,0,1.5-0.3,1.8-0.6
		 M68.5,62.9c0,0,1.5-1.5,2.6-1.5c1,0,2.8-0.1,2.8,0.2 M74.9,61.6l2.3,0.4 M78.4,62l1.5,0 M81.8,62.3l2-0.3 M85.1,62.2
		c0,0,1.8,0,2.1-0.2 M88.6,62c0,0,2.8-0.6,3.7-1.3 M68.3,64.7c0,0,1.4-1.2,2.8-1.3c1.4-0.1,2.1-0.4,2.7-0.1c0.8,0.3,0.5,0.2,0.5,0.2
		 M75.3,63.5l1.5,0.3 M78.1,63.8c0,0,1.6,0.6,1.9,0.4 M81.2,64.4c0,0,1.6,0.1,2.3-0.2 M84.6,64.4c0,0,1.9,0,2.7-0.4 M89,63.8
		c0,0,2.4-0.1,2.8-0.5 M68.2,67.1l1-0.6 M70.7,65.8c0,0,2.6-1.4,4.2-0.9 M75.8,65.1c0,0,1.9-0.3,2.2,0.1 M79.2,65.7
		c0,0,2.2,0.1,2.6,0.3 M83.3,66.2c0,0,1.4,0.3,2.6-0.1 M86.6,65.9c0,0,0.6,0.1,2.1-0.2 M89.9,65.8c0,0,0.6,0.5,1.7-0.5 M68.2,69.4
		c0,0,1.2-1.7,2.6-1.7c1.7,0,3-0.3,3.9-0.1 M76.1,67.5h1.4 M79.3,67.8l1.7,0.6 M82,68.4l2.5-0.1 M86.2,68.2l2.1-0.2 M89.6,67.8
		c0,0,1.5-0.2,1.8-0.6 M68.3,71.4c0,0,1.6-1.6,2.6-1.6c1,0,2.7-0.1,2.8,0.3 M74.7,70l2.3,0.3 M78.1,70.5l1.5,0 M81.6,70.7l2.1-0.2
		 M84.8,70.5c0,0,1.8,0,2.2-0.2 M88.4,70.3c0,0,2.8-0.6,3.6-1.3 M68.1,73.1c0,0,1.4-1.2,2.7-1.2c1.4-0.1,2.1-0.4,2.7-0.1
		c0.8,0.3,0.5,0.2,0.5,0.2 M75.1,71.9l1.5,0.3 M77.9,72.3c0,0,1.6,0.6,1.9,0.3 M81,72.9c0,0,1.6,0.1,2.3-0.3 M84.4,72.7
		c0,0,1.9,0,2.7-0.4 M88.7,72.3c0,0,2.5-0.1,2.8-0.5 M68,75.4l1-0.6 M70.5,74.2c0,0,2.6-1.4,4.2-0.9 M75.6,73.5c0,0,1.9-0.2,2.1,0.1
		 M79,74.1c0,0,2.1,0.1,2.6,0.3 M83,74.5c0,0,1.4,0.3,2.6-0.1 M86.4,74.3c0,0,0.6,0.1,2.1-0.2 M89.6,74.2c0,0,0.7,0.5,1.7-0.5
		 M68,77.8c0,0,1.2-1.7,2.6-1.7c1.7,0,2.9-0.4,3.8-0.1 M75.9,75.9h1.4 M79.1,76.2l1.7,0.6 M81.8,76.8l2.4-0.1 M86,76.6l2.1-0.3
		 M89.4,76.2c0,0,1.5-0.2,1.8-0.5 M68.1,79.8c0,0,1.5-1.6,2.6-1.6c1,0,2.8-0.1,2.8,0.3 M74.4,78.4l2.3,0.3 M77.9,78.9l1.5,0
		 M81.4,79l2-0.2 M84.6,79c0,0,1.8,0,2.1-0.3 M88.1,78.7c0,0,2.8-0.6,3.7-1.2 M67.8,81.4c0,0,1.4-1.1,2.8-1.2
		c1.4-0.1,2.1-0.4,2.7-0.1c0.8,0.3,0.5,0.3,0.5,0.3 M74.9,80.3l1.5,0.2 M77.7,80.7c0,0,1.6,0.6,1.9,0.3 M80.8,81.2
		c0,0,1.6,0.1,2.3-0.3 M84.2,81.1c0,0,1.9,0,2.7-0.3 M88.5,80.7c0,0,2.4-0.1,2.8-0.5 M67.8,83.9l1-0.6 M70.2,82.7
		c0,0,2.6-1.4,4.2-0.9 M75.3,82c0,0,1.9-0.2,2.2,0.1 M78.7,82.6c0,0,2.2,0.1,2.6,0.3 M82.8,83c0,0,1.4,0.3,2.6-0.1 M86.2,82.8
		c0,0,0.6,0.1,2.1-0.2 M89.4,82.7c0,0,0.6,0.5,1.7-0.5 M67.8,86.3c0,0,1.2-1.7,2.6-1.7c1.7,0,3-0.4,3.9-0.1 M75.7,84.4H77
		 M78.8,84.7l1.7,0.6 M81.6,85.3l2.5-0.1 M85.7,85.1l2.1-0.3 M89.2,84.7c0,0,1.5-0.2,1.8-0.5 M67.8,88.3c0,0,1.6-1.6,2.6-1.6
		c1,0,2.7-0.1,2.8,0.3 M74.2,86.9l2.3,0.3 M77.7,87.4h1.5 M81.1,87.5l2.1-0.2 M84.4,87.5c0,0,1.8,0,2.2-0.3 M87.9,87.2
		c0,0,2.8-0.6,3.6-1.2 M67.6,89.9c0,0,1.4-1.1,2.7-1.2c1.4-0.1,2.1-0.4,2.7-0.1c0.8,0.3,0.5,0.3,0.5,0.3 M74.7,88.8l1.5,0.2
		 M77.5,89.2c0,0,1.6,0.6,1.9,0.3 M80.5,89.7c0,0,1.6,0.1,2.3-0.3 M83.9,89.6c0,0,1.9,0,2.7-0.3 M88.3,89.2c0,0,2.5-0.1,2.8-0.5
		 M67.7,92.2c0,0,0.8-1.7,5.6-1.7 M68,93.7c0,0,0.6-1.4,1.7-1.4c1.1,0,2-0.2,2.1,0"/>
	<path fill="none" stroke="#231F20" stroke-width="0.4509" stroke-miterlimit="10" d="M63.6,97c0,0,1.1,1.6,3.9,1.6
		c2.8,0,3.5-0.9,3.8-1.4"/>
	<polyline fill="none" stroke="#00539B" stroke-width="0.1933" stroke-miterlimit="10" points="71.4,97.2 76.3,95.6 96.4,96.5 
		97.5,38.5 	"/>
	<path fill="#FFC425" d="M63.6,97c-0.1-0.3,0.8-1.9,1.2-2.1c0.3-0.3,1-1,2.7-1c1.7,0.1,3.9,0.7,3.9,3.4c-0.1,0.7-2.3,1.3-3.7,1.4
		C66.8,98.6,64,98,63.6,97"/>
	<path fill="none" stroke="#00539B" stroke-width="0.5798" stroke-miterlimit="10" d="M63.6,97c-0.1-0.3,0.8-1.9,1.2-2.1
		c0.3-0.3,1-1,2.7-1c1.7,0.1,3.9,0.7,3.9,3.4c-0.1,0.7-2.3,1.3-3.7,1.4C66.8,98.6,64,98,63.6,97L63.6,97z"/>
	<path fill="#00539B" d="M49.7,44.5c0.1,0,0.2,0,0.1-0.2l-0.2-0.8c-0.1-0.3-0.1-0.5-0.1-0.5h0c0,0-0.1,0.2-0.2,0.5L49,44.3
		c-0.1,0.2,0,0.2,0.1,0.2H49.7L49.7,44.5z M49,44.8c-0.1,0-0.1,0-0.2,0.2l-0.2,0.8c-0.1,0.4-0.1,0.4,0.1,0.4l0.2,0c0,0,0,0.2,0,0.2
		c-0.2,0-0.3,0-0.6,0c-0.2,0-0.3,0-0.5,0c0,0,0-0.1,0-0.2l0.2,0c0.2,0,0.2-0.1,0.3-0.3c0.1-0.2,0.1-0.4,0.3-0.8l0.7-2.3
		c0.1-0.2,0.1-0.4,0.1-0.5c0.2,0,0.4-0.3,0.4-0.3c0,0,0.1,0,0.1,0.1c0.1,0.3,0.2,0.6,0.2,0.9l0.8,2.7c0.1,0.4,0.1,0.5,0.4,0.5l0.1,0
		c0,0,0,0.2,0,0.2c-0.2,0-0.4,0-0.7,0c-0.2,0-0.5,0-0.6,0c0,0,0-0.1,0-0.2l0.1,0c0.2,0,0.2-0.1,0.1-0.3L49.9,45
		c-0.1-0.2-0.1-0.2-0.2-0.2L49,44.8"/>
	<path fill="#FFFFFF" d="M96.9,68.5c0.6,0,2.4-0.3,2.6,0.3c0.3,0.6,1.4-0.3,1.9-0.7c0.6-0.3,0.3-2.6-0.1-3c-0.5-0.5,0.3-1,0.5-1.6
		c0.3-0.6-0.8-2.5-1.2-3.4c-0.5-0.9,0.6-2.1,1-2.1c0.5,0,1.5,1.4,1.1,2.4c-0.3,1,1.2,1.8,1.9,2.7c0.8,0.9,0.3,5.5,0.3,4.4
		c0-1,2.7-0.8,3-1.2c0.4-0.3,0.6-1.7,0.6-1.7s-1.1-1.5-1.4-2.1c-0.2-0.6,0.5-1.9,0.6-2.5c0.1-0.5,2.1-0.5,1.7-0.3
		c-0.5,0.3,0,3,0,3.3c0,0.3,1.9,2.3,1.6,3.6c-0.3,1.4-0.5,1.2-4.2,4.9c-3.7,3.7-5.9,3.3-9,2.3c-2.9-1-3.7-4.1-3.7-4.1
		s-0.9,0.1-3.9,1.9c-1.4,0.8-1.8,2.7-2.1,4.1l-0.3,4.4c-0.8-1.2-1.4-7.1-1.4-7.1s-0.3-1,0.6-3c0.8-1.9,3.6-3.2,4.4-4.8
		c0.8-1.5,3.3-0.5,4-0.5c1.2-0.1,1.2,0.8,1.3,1.3l0.1,0.4L96.9,68.5c-0.7,0-2.8,0.3-2.8,1.2c0,0.5-0.6-2.5-0.5-2.6
		c1.4-1.6,2.4,0.6,3.2-0.9"/>
	<path fill="none" stroke="#00539B" stroke-width="0.6442" stroke-miterlimit="10" d="M96.9,68.5c0.6,0,2.4-0.3,2.6,0.3
		c0.3,0.6,1.4-0.3,1.9-0.7c0.6-0.3,0.3-2.6-0.1-3c-0.5-0.5,0.3-1,0.5-1.6c0.3-0.6-0.8-2.5-1.2-3.4c-0.5-0.9,0.6-2.1,1-2.1
		c0.5,0,1.5,1.4,1.1,2.4c-0.3,1,1.2,1.8,1.9,2.7c0.8,0.9,0.3,5.5,0.3,4.4c0-1,2.7-0.8,3-1.2c0.4-0.3,0.6-1.7,0.6-1.7
		s-1.1-1.5-1.4-2.1c-0.2-0.6,0.5-1.9,0.6-2.5c0.1-0.5,2.1-0.5,1.7-0.3c-0.5,0.3,0,3,0,3.3c0,0.3,1.9,2.3,1.6,3.6
		c-0.3,1.4-0.5,1.2-4.2,4.9c-3.7,3.7-5.9,3.3-9,2.3c-2.9-1-3.7-4.1-3.7-4.1s-0.9,0.1-3.9,1.9c-1.4,0.8-1.8,2.7-2.1,4.1l-0.3,4.4
		c-0.8-1.2-1.4-7.1-1.4-7.1s-0.3-1,0.6-3c0.8-1.9,3.6-3.2,4.4-4.8c0.8-1.5,3.3-0.5,4-0.5c1.2-0.1,1.2,0.8,1.3,1.3l0.1,0.4L96.9,68.5
		c-0.7,0-2.8,0.3-2.8,1.2c0,0.5-0.6-2.5-0.5-2.6c1.4-1.6,2.4,0.6,3.2-0.9"/>
	<path fill="#FFFFFF" d="M81.6,97c0,0-4.6-1.8-4.4-3.3c0.3-1.5,1.5-1.7,1.5-1.7c0.1,0.1-0.8-0.7-0.8-0.9c-0.1-0.2-0.5-0.8-1.1-1.1
		c-0.6-0.2-1.9-0.8-3,0c-1,0.9-1.8,1.9-1.9,2.1l-0.1,0.1c-1.6,2.4,1.4,3.9,1.4,3.9c1,0.8,4.7,1.5,5.6,1.7c0.1,0,0.9-0.6,1.2-0.6"/>
	<path fill="none" stroke="#00539B" stroke-width="0.5798" stroke-miterlimit="10" d="M81.6,97c0,0-4.6-1.8-4.4-3.3
		c0.3-1.5,1.5-1.7,1.5-1.7c0.1,0.1-0.8-0.7-0.8-0.9c-0.1-0.2-0.5-0.8-1.1-1.1c-0.6-0.2-1.9-0.8-3,0c-1,0.9-1.8,1.9-1.9,2.1l-0.1,0.1
		c-1.6,2.4,1.4,3.9,1.4,3.9c1,0.8,4.7,1.5,5.6,1.7c0.1,0,0.9-0.6,1.2-0.6"/>
	<path fill="#FFFFFF" d="M104.5,79.1c0.4,1.5,0.2,3.1,0.1,3.8c-0.2,1.2-0.9,5-6.2,4.1c-5.3-0.9-16.6-2.8-16.4-3.5
		c0.1-0.7-7.5-1.7-7.5,0.2c0,1.6,0.3,4.9-0.1,6.1h0.1c0.5-0.3,1-0.3,1.7,0c1.9,0.6,1.4,1.4,2.8,2.4c1.4,1,2.4,1.1,3,1
		c0.6-0.1,6.1,0.5,6.8,1c0.6,0.6,6.8,2.1,9.9,1.9c3-0.3,5.5-1.4,6.3-2.2c0.8-0.8,3.7-3.7,4.2-5.3c0.5-1.5,1.9-5-2.1-8.1
		c-0.8-0.7-1.7-1.1-2.4-1.4V79.1"/>
	<path fill="none" stroke="#00539B" stroke-width="0.6442" stroke-miterlimit="10" d="M104.5,79.1c0.4,1.5,0.2,3.1,0.1,3.8
		c-0.2,1.2-0.9,5-6.2,4.1c-5.3-0.9-16.6-2.8-16.4-3.5c0.1-0.7-7.5-1.7-7.5,0.2c0,1.6,0.3,4.9-0.1,6.1h0.1c0.5-0.3,1-0.3,1.7,0
		c1.9,0.6,1.4,1.4,2.8,2.4c1.4,1,2.4,1.1,3,1c0.6-0.1,6.1,0.5,6.8,1c0.6,0.6,6.8,2.1,9.9,1.9c3-0.3,5.5-1.4,6.3-2.2
		c0.8-0.8,3.7-3.7,4.2-5.3c0.5-1.5,1.9-5-2.1-8.1c-0.8-0.7-1.7-1.1-2.4-1.4V79.1L104.5,79.1z"/>
	<path fill="#FFFFFF" d="M104,78.7c-2.5-0.8-4.1,0.2-3.4,0.2c0.6,0-1.4-0.5-3.3,2.4c-1.5,2.1-5.4,1.5-6.1,1.7
		c-0.7,0.1-3.6-1.8-3.8-4.2c0-0.4-0.5-1.9-0.5-3L86.6,74c1,1.4,3.7,4.1,5.5,4c3.3-0.2,8.2-2.4,10.4-1.9c1,0.2,5.5,4.1,5.8,5.3
		c0,0-2.8-3.1-6.1-3.2"/>
	<path fill="none" stroke="#00539B" stroke-width="0.6442" stroke-miterlimit="10" d="M104,78.7c-2.5-0.8-4.1,0.2-3.4,0.2
		c0.6,0-1.4-0.5-3.3,2.4c-1.5,2.1-5.4,1.5-6.1,1.7c-0.7,0.1-3.6-1.8-3.8-4.2c0-0.4-0.5-1.9-0.5-3L86.6,74c1,1.4,3.7,4.1,5.5,4
		c3.3-0.2,8.2-2.4,10.4-1.9c1,0.2,5.5,4.1,5.8,5.3c0,0-2.8-3.1-6.1-3.2"/>
	<path fill="#FFFFFF" d="M36.4,86.8c-0.7,0,4.9-0.5,10,5.1c2.8,3,1.5,5.3,5.4,10.6c3.9,5.2,7.5,7.7,17.5,8.8
		c10,1.2,12.4-5.1,13.1-5.2c0.6-0.1,2-4.8,1.7-6.1c-0.3-1.4-1.7-3.2-3.5-3.2c-0.5,0-1,0.1-1,0.1s-1,0.5-1.8,0.6l1.2,0.4
		c0.6,1-0.2,1.6-1.9,2.9c-2.4,1.9-5.5,1.2-9.1,0.7c-3.6-0.5-6.7-2.4-8.2-5.5c-1.4-3.2-4.7-9-9.9-13.1c-5.2-4.1-6.2-3.4-10.9-3.3
		c-4.8,0.1-5.2,1.8-6.1,2.6c-1,0.8,0.1,3.7-0.5,4.5c-0.6,0.8-1.3,1.2-1.3,1.2"/>
	<path fill="none" stroke="#00539B" stroke-width="0.6442" stroke-miterlimit="10" d="M36.4,86.8c-0.7,0,4.9-0.5,10,5.1
		c2.8,3,1.5,5.3,5.4,10.6c3.9,5.2,7.5,7.7,17.5,8.8c10,1.2,12.4-5.1,13.1-5.2c0.6-0.1,2-4.8,1.7-6.1c-0.3-1.4-1.7-3.2-3.5-3.2
		c-0.5,0-1,0.1-1,0.1s-1,0.5-1.8,0.6l1.2,0.4c0.6,1-0.2,1.6-1.9,2.9c-2.4,1.9-5.5,1.2-9.1,0.7c-3.6-0.5-6.7-2.4-8.2-5.5
		c-1.4-3.2-4.7-9-9.9-13.1c-5.2-4.1-6.2-3.4-10.9-3.3c-4.8,0.1-5.2,1.8-6.1,2.6c-1,0.8,0.1,3.7-0.5,4.5c-0.6,0.8-1.3,1.2-1.3,1.2"/>
	<path fill="#FFFFFF" d="M35.1,92.1L35,96c-2.8,0.3-7.9-5.4-4.9-7.5c3-2.2,5-1.6,5.9-1.6c0.9,0-3.3,0.1-3.4,1.4
		C32.5,89.4,31.9,90.4,35.1,92.1"/>
	<path fill="none" stroke="#00539B" stroke-width="0.5798" stroke-miterlimit="10" d="M35.1,92.1L35,96c-2.8,0.3-7.9-5.4-4.9-7.5
		c3-2.2,5-1.6,5.9-1.6c0.9,0-3.3,0.1-3.4,1.4C32.5,89.4,31.9,90.4,35.1,92.1L35.1,92.1z"/>
	<path fill="#FFFFFF" d="M35,96l7.6,0.4c0,0,1,1,1,2.8c0,0.1,1.1,0.1,1.5,0.6c0.6,0.6,1.9,3,3.2,3.2c1.2,0.1,1.1,1.4,0.5,1.5
		c-0.6,0.3-1.9-0.1-2.1-0.6c-0.2-0.5-0.6-1.5-1.8-1.6c-1.2-0.1-3-1.2-2.9-1.6c0.1-0.4,0.1,0.8-0.5,1.5c-0.6,0.7,0.7,1.4,0.9,1.8
		c0.3,0.5,1.4,1.6,1.1,2c-0.3,0.4,0.1,1.3-0.4,1c-0.5-0.3-1.4-0.6-1.7-1.4c-0.3-0.8-0.9-1.5-1.7-1.7c-0.8-0.3-0.6-1-0.8-2.2
		c-0.3-1.1-0.3-2.1-1.3-2.4c-1-0.2-1.2-0.1-1.2-1C36.5,97.5,35,96,35,96"/>
	<path fill="none" stroke="#00539B" stroke-width="0.5798" stroke-miterlimit="10" d="M35,96l7.6,0.4c0,0,1,1,1,2.8
		c0,0.1,1.1,0.1,1.5,0.6c0.6,0.6,1.9,3,3.2,3.2c1.2,0.1,1.1,1.4,0.5,1.5c-0.6,0.3-1.9-0.1-2.1-0.6c-0.2-0.5-0.6-1.5-1.8-1.6
		c-1.2-0.1-3-1.2-2.9-1.6c0.1-0.4,0.1,0.8-0.5,1.5c-0.6,0.7,0.7,1.4,0.9,1.8c0.3,0.5,1.4,1.6,1.1,2c-0.3,0.4,0.1,1.3-0.4,1
		c-0.5-0.3-1.4-0.6-1.7-1.4c-0.3-0.8-0.9-1.5-1.7-1.7c-0.8-0.3-0.6-1-0.8-2.2c-0.3-1.1-0.3-2.1-1.3-2.4c-1-0.2-1.2-0.1-1.2-1
		C36.5,97.5,35,96,35,96L35,96z"/>
	<path fill="#FFFFFF" d="M96.8,66.2c0,0-0.5,0.8-0.9,0.6c-0.4-0.2-1.5-0.8-2.3,0.3c-0.1,0.1,0.5,2.6,0.5,2.6
		c0.1,0.1-0.1-0.5,0.8-0.8c0.9-0.3,0.4-0.3,2-0.5L96.8,66.2"/>
	<path fill="none" stroke="#00539B" stroke-width="0.5798" stroke-miterlimit="10" d="M96.8,66.2c0,0-0.5,0.8-0.9,0.6
		c-0.4-0.2-1.5-0.8-2.3,0.3c-0.1,0.1,0.5,2.6,0.5,2.6c0.1,0.1-0.1-0.5,0.8-0.8c0.9-0.3,0.4-0.3,2-0.5L96.8,66.2L96.8,66.2z"/>
	<path fill="#00539B" d="M42.3,84.8c-0.1,0.3-0.2,0.5-0.2,0.6c0,0.1,0.1,0.2,0.5,0.4c0.6,0.3,0.7,0.3,1.3-0.1c0.1,0,0.2,0.1,0.2,0.1
		c-0.2,0.2-0.5,0.6-0.7,0.7c-0.2-0.1-0.7-0.4-1.3-0.7l-0.6-0.3c-0.3-0.2-0.6-0.3-0.8-0.4c0,0,0-0.2,0.1-0.2L41,85
		c0.3,0.1,0.3,0.1,0.6-0.5l1.1-2.1c0.3-0.6,0.3-0.6,0-0.8l-0.1-0.1c0,0,0-0.2,0.1-0.2c0.3,0.2,0.5,0.3,0.8,0.4
		c0.2,0.1,0.5,0.3,0.8,0.4c0,0,0,0.2-0.1,0.2l-0.1,0c-0.3-0.1-0.3-0.1-0.6,0.5L42.3,84.8"/>
	<path fill="#00539B" d="M46.9,84.8c0.5-0.5,0.4-0.5,0.3-0.8l-0.1-0.1c0-0.1,0.1-0.1,0.1-0.1c0.2,0.2,0.4,0.4,0.6,0.6l0.9,0.8
		c0.3,0.3,0.6,0.5,0.6,0.6c-0.1,0.1-0.4,0.5-0.5,0.7c-0.1,0-0.2-0.1-0.2-0.1c0.2-0.3,0.2-0.5,0.1-0.7c-0.1-0.1-0.2-0.3-0.3-0.4
		L48.1,85c-0.2-0.2-0.2-0.2-0.5,0.1l-0.7,0.8c-0.1,0.1-0.1,0.1,0,0.2l0.2,0.2c0.4,0.4,0.5,0.5,0.7,0.3l0.2-0.1
		c0.1,0,0.2,0.1,0.1,0.1c-0.1,0.1-0.3,0.3-0.5,0.4c-0.2,0.2-0.3,0.3-0.4,0.5c-0.1,0-0.1-0.1-0.2-0.1l0.1-0.2
		c0.2-0.2,0.1-0.3-0.3-0.7l-0.2-0.2c-0.1-0.1-0.1-0.1-0.2,0l-0.6,0.6c-0.2,0.2-0.4,0.4-0.4,0.6c0,0.1,0,0.2,0.4,0.6
		c0.6,0.6,0.8,0.5,1.3,0.3c0.1,0,0.1,0.1,0.1,0.2c-0.2,0.2-0.6,0.4-0.8,0.5c-0.2-0.2-0.6-0.6-1.1-1.1l-0.5-0.5
		c-0.2-0.2-0.5-0.5-0.7-0.6c0-0.1,0.1-0.1,0.1-0.1l0.2,0.1c0.2,0.2,0.3,0.2,0.8-0.3L46.9,84.8"/>
	<path fill="#00539B" d="M50.9,88.5c0.2-0.2,0.2-0.2,0.1-0.3l-0.2-0.3c-0.3-0.5-0.5-0.6-1.1-0.5c-0.1,0-0.1-0.1-0.1-0.2
		c0.3-0.1,0.7-0.3,0.9-0.4c0,0,0,0,0.1,0c0,0,0,0,0,0.1c-0.1,0.1-0.1,0.2,0.2,0.5l1.5,2.1c0.2,0.3,0.3,0.3,0.4,0.3c0,0,0.1,0,0.1,0
		c0,0,0,0.1,0,0.1c-0.2,0.1-0.7,0.4-0.9,0.5c-0.1,0-0.1-0.1-0.1-0.1c0.3-0.4,0.4-0.5,0-1.1L51.6,89c-0.1-0.1-0.1-0.1-0.3,0l-2.2,1.6
		c-0.5,0.4-0.5,0.5-0.4,0.7l0.1,0.2c0,0.1-0.1,0.1-0.2,0.1c-0.2-0.3-0.4-0.5-0.5-0.8c-0.2-0.2-0.3-0.5-0.6-0.8
		c0-0.1,0.1-0.1,0.1-0.1l0.2,0.2c0.2,0.2,0.2,0.3,0.8-0.1L50.9,88.5"/>
	<path fill="#00539B" d="M54.5,94.6c0.2-0.1,0.3-0.1,0.2-0.3L54.5,94c-0.2-0.5-0.4-0.7-0.9-0.7c-0.1,0-0.1-0.2,0-0.2
		c0.4,0,0.8-0.1,1-0.2c0,0,0,0,0.1,0.1c0,0,0,0,0,0.1c-0.1,0.1-0.1,0.2,0.1,0.6l1,2.4c0.1,0.3,0.2,0.4,0.3,0.4c0,0,0,0,0.1,0.1
		c0,0,0,0.1,0,0.1c-0.3,0-0.8,0.2-1,0.3c-0.1,0-0.1-0.1-0.1-0.2c0.4-0.3,0.5-0.4,0.2-1.1l-0.1-0.3c-0.1-0.2-0.1-0.2-0.3,0l-2.5,1.1
		c-0.6,0.3-0.6,0.3-0.5,0.6l0.1,0.2c0,0.1-0.1,0.1-0.2,0.1c-0.1-0.3-0.2-0.6-0.3-0.9c-0.1-0.3-0.2-0.5-0.4-0.9
		c0-0.1,0.1-0.1,0.2-0.1l0.1,0.2c0.1,0.3,0.2,0.3,0.8,0L54.5,94.6"/>
	<path fill="#00539B" d="M55,99.3c-0.2-0.3-0.2-0.3-0.4-0.1L54,99.7c-0.5,0.4-0.5,0.5-0.3,0.7l0.1,0.2c0,0.1-0.1,0.1-0.2,0.1
		c-0.2-0.3-0.4-0.5-0.5-0.7c-0.2-0.2-0.4-0.4-0.5-0.6c0-0.1,0.1-0.1,0.1-0.1l0.1,0.1c0.2,0.2,0.3,0.2,0.8-0.2l1.8-1.5
		c0.5-0.4,0.5-0.5,0.3-0.7l-0.1-0.1c0-0.1,0.1-0.1,0.2-0.1c0.2,0.2,0.3,0.5,0.5,0.7c0.2,0.2,0.4,0.4,0.5,0.6c0,0.1-0.1,0.1-0.1,0.1
		L56.6,98c-0.2-0.2-0.3-0.2-0.8,0.2l-0.6,0.5c-0.1,0.1-0.1,0.1,0.1,0.4l0.9,1.1c0.2,0.2,0.2,0.3,0.4,0.1l0.6-0.5
		c0.5-0.4,0.5-0.5,0.3-0.7L57.4,99c0-0.1,0.1-0.1,0.2-0.1c0.2,0.2,0.3,0.5,0.5,0.7c0.2,0.2,0.4,0.4,0.5,0.6c0,0.1-0.1,0.1-0.1,0.1
		l-0.1-0.1c-0.2-0.2-0.3-0.2-0.8,0.2l-1.8,1.5c-0.5,0.4-0.5,0.5-0.3,0.7l0.1,0.1c0,0.1-0.1,0.1-0.2,0.1c-0.2-0.2-0.3-0.4-0.5-0.7
		c-0.2-0.2-0.4-0.4-0.6-0.6c0-0.1,0.1-0.1,0.1-0.1l0.1,0.1c0.2,0.2,0.3,0.2,0.8-0.2l0.7-0.6c0.1-0.1,0.1-0.1-0.1-0.4L55,99.3"/>
	<path fill="#00539B" d="M58.9,101.8c0.3-0.6,0.3-0.6,0.1-0.8l-0.1-0.1c0-0.1,0-0.2,0.1-0.1c0.2,0.1,0.4,0.3,0.7,0.4l1,0.6
		c0.3,0.2,0.7,0.4,0.7,0.4c0,0.1-0.3,0.6-0.4,0.8c0,0-0.2,0-0.2-0.1c0.1-0.4,0.1-0.6,0-0.7c-0.1-0.1-0.3-0.2-0.4-0.3l-0.4-0.2
		c-0.2-0.1-0.2-0.1-0.4,0.2l-0.6,0.9c-0.1,0.1-0.1,0.1,0,0.2l0.3,0.2c0.5,0.3,0.6,0.3,0.7,0.1l0.1-0.2c0.1,0,0.2,0.1,0.2,0.1
		c-0.1,0.1-0.2,0.3-0.3,0.5c-0.1,0.2-0.2,0.4-0.3,0.6c-0.1,0-0.2,0-0.2-0.1l0.1-0.2c0.1-0.2,0-0.3-0.5-0.6l-0.3-0.2
		c-0.1-0.1-0.1-0.1-0.2,0.1l-0.4,0.7c-0.2,0.3-0.3,0.5-0.3,0.6c0,0.1,0.1,0.2,0.5,0.5c0.7,0.4,0.9,0.3,1.3,0c0.1,0,0.2,0.1,0.2,0.1
		c-0.2,0.2-0.5,0.5-0.7,0.6c-0.2-0.2-0.7-0.4-1.3-0.8l-0.6-0.4c-0.2-0.1-0.6-0.3-0.8-0.5c0,0,0-0.1,0.1-0.2l0.2,0.1
		c0.3,0.1,0.3,0.1,0.7-0.4L58.9,101.8"/>
	<path fill="#00539B" d="M62.7,105.2c-0.1,0.2-0.1,0.2,0.2,0.3c0.6,0.2,1,0,1.1-0.6c0.2-0.5,0-1-0.5-1.2c-0.3-0.1-0.3-0.1-0.4,0.2
		L62.7,105.2L62.7,105.2z M62.3,104.1c0.2-0.6,0.2-0.7-0.1-0.8l-0.2-0.1c0-0.1,0-0.2,0.1-0.2c0.4,0.1,0.9,0.2,1.4,0.4
		c0.5,0.2,0.9,0.4,1.1,0.6c0.3,0.3,0.4,0.6,0.2,1.1c-0.2,0.6-0.7,0.7-1,0.7c0,0,0,0.1,0,0.1c0.2,1,0.3,1.6,0.5,1.9
		c0.1,0.2,0.3,0.3,0.4,0.3c0,0,0,0.1,0,0.1c-0.1,0-0.2,0-0.4-0.1c-0.6-0.2-0.8-0.5-1-1.2c-0.1-0.3-0.1-0.7-0.2-1
		c0-0.2-0.1-0.3-0.3-0.3c-0.2-0.1-0.2-0.1-0.2,0.1l-0.3,0.8c-0.2,0.6-0.2,0.7,0.1,0.8l0.1,0.1c0,0.1,0,0.2-0.1,0.2
		c-0.3-0.1-0.5-0.2-0.8-0.3c-0.3-0.1-0.5-0.2-0.8-0.3c0,0,0-0.2,0-0.2l0.1,0c0.3,0.1,0.4,0.1,0.6-0.6L62.3,104.1"/>
	<path fill="#00539B" d="M66.1,105.4c0.1-0.7,0-0.7-0.3-0.8l-0.1,0c0,0,0-0.2,0-0.2c0.2,0,0.5,0.1,0.8,0.1l1.2,0.1
		c0.4,0,0.8,0.1,0.9,0.1c0,0.1,0,0.6,0,0.9c0,0-0.2,0-0.2,0c-0.1-0.4-0.1-0.5-0.3-0.6c-0.1-0.1-0.3-0.1-0.5-0.1l-0.4,0
		c-0.3,0-0.3,0-0.3,0.3l-0.1,1.1c0,0.2,0,0.2,0.1,0.2l0.3,0c0.5,0,0.7,0.1,0.7-0.2l0.1-0.2c0.1,0,0.2,0,0.2,0c0,0.2-0.1,0.4-0.1,0.6
		c0,0.2,0,0.5,0,0.7c0,0-0.2,0-0.2,0l0-0.3c0-0.3-0.1-0.3-0.7-0.3l-0.3,0c-0.1,0-0.2,0-0.2,0.2l-0.1,0.8c0,0.3,0,0.5,0,0.7
		c0.1,0.1,0.2,0.2,0.7,0.2c0.8,0.1,1-0.1,1.2-0.6c0.1,0,0.2,0,0.2,0.1c-0.1,0.3-0.2,0.7-0.3,0.9c-0.3,0-0.8-0.1-1.6-0.2l-0.7-0.1
		c-0.3,0-0.7-0.1-0.9-0.1c0,0,0-0.1,0-0.2l0.2,0c0.3,0,0.4,0,0.4-0.7L66.1,105.4"/>
	<path fill="#00539B" d="M73.6,106.1c0,0.2,0.1,0.2,0.3,0.1c0.6-0.1,0.8-0.4,0.7-1c-0.1-0.5-0.6-0.7-1-0.6c-0.3,0.1-0.3,0.1-0.3,0.3
		L73.6,106.1L73.6,106.1z M74,107.6c0.1,0.6,0.2,0.8,0.8,0.7c0.4-0.1,0.7-0.5,0.6-1c-0.1-0.6-0.7-0.9-1.3-0.8
		c-0.3,0.1-0.3,0.1-0.2,0.2L74,107.6L74,107.6z M72.8,105.6c-0.1-0.6-0.2-0.7-0.4-0.6l-0.2,0c-0.1,0-0.1-0.1,0-0.2
		c0.3-0.1,0.7-0.2,1.4-0.4c0.5-0.1,0.9-0.2,1.3-0.1c0.3,0.1,0.5,0.3,0.6,0.7c0.1,0.4-0.1,0.7-0.5,0.9c0,0,0,0,0,0c0,0,0,0,0.1,0
		c0.5,0,1.1,0.2,1.2,0.9c0.1,0.3,0,0.6-0.2,0.9c-0.2,0.3-0.6,0.5-1.3,0.7c-0.3,0.1-0.5,0.1-0.8,0.1c-0.3,0.1-0.6,0.1-0.8,0.2
		c-0.1,0-0.1-0.1-0.1-0.2l0.1,0c0.3-0.1,0.3-0.1,0.2-0.8L72.8,105.6"/>
	<path fill="#00539B" d="M76.4,104.7c-0.4-0.6-0.4-0.6-0.7-0.4l-0.1,0c-0.1,0-0.1-0.1-0.1-0.2c0.2-0.1,0.5-0.3,0.7-0.4l1-0.7
		c0.3-0.2,0.6-0.4,0.7-0.5c0.1,0.1,0.4,0.5,0.6,0.7c0,0.1-0.1,0.1-0.2,0.1c-0.3-0.3-0.4-0.3-0.6-0.3c-0.1,0-0.3,0.1-0.5,0.2
		l-0.4,0.2c-0.2,0.1-0.2,0.2,0,0.5l0.6,0.9c0.1,0.1,0.1,0.1,0.2,0.1l0.3-0.2c0.5-0.3,0.6-0.4,0.4-0.6l-0.1-0.2
		c0-0.1,0.1-0.1,0.2-0.1c0.1,0.1,0.2,0.3,0.3,0.5c0.1,0.2,0.3,0.4,0.4,0.6c0,0.1-0.1,0.1-0.2,0.1l-0.2-0.2c-0.2-0.2-0.3-0.2-0.7,0.1
		l-0.3,0.2c-0.1,0.1-0.1,0.1,0,0.2l0.4,0.7c0.2,0.3,0.3,0.5,0.4,0.5c0.1,0,0.2,0,0.7-0.3c0.7-0.4,0.7-0.7,0.6-1.2
		c0-0.1,0.1-0.1,0.2-0.1c0.1,0.2,0.3,0.7,0.3,0.9c-0.2,0.1-0.7,0.4-1.3,0.8l-0.6,0.4c-0.2,0.2-0.6,0.4-0.8,0.5
		c-0.1,0-0.1-0.1-0.1-0.1l0.2-0.1c0.2-0.2,0.3-0.2-0.1-0.8L76.4,104.7"/>
	<path fill="#00539B" d="M83.1,89.6c0,0.3-0.1,0.5,0,0.7c0.1,0.1,0.2,0.2,0.7,0.2c0.7,0.1,0.8,0.1,1.2-0.5c0.1,0,0.2,0,0.2,0.1
		c-0.1,0.3-0.3,0.7-0.4,0.9c-0.3-0.1-0.8-0.1-1.5-0.2l-0.7-0.1c-0.3,0-0.6-0.1-0.9-0.1c0,0,0-0.2,0-0.2l0.2,0c0.3,0,0.4,0,0.5-0.7
		l0.4-2.3c0.1-0.7,0-0.7-0.2-0.8l-0.2-0.1c0,0,0-0.2,0-0.2c0.3,0.1,0.6,0.1,0.9,0.2c0.3,0,0.6,0.1,0.8,0.1c0.1,0,0,0.2,0,0.2l-0.1,0
		c-0.3,0-0.4,0-0.5,0.7L83.1,89.6"/>
	<path fill="#00539B" d="M86.9,90.5c-0.1,0.7-0.1,0.7,0.2,0.8l0.1,0c0,0.1,0,0.2,0,0.2c-0.3-0.1-0.5-0.1-0.8-0.2
		c-0.3-0.1-0.6-0.1-0.8-0.2c0,0,0-0.1,0-0.2l0.1,0c0.3,0,0.4,0,0.5-0.6l0.5-2.3c0.1-0.7,0.1-0.7-0.2-0.8l-0.1,0c0-0.1,0-0.2,0-0.2
		c0.3,0.1,0.5,0.1,0.8,0.2c0.3,0.1,0.6,0.1,0.8,0.1c0,0,0,0.1,0,0.2l-0.1,0c-0.3,0-0.4,0-0.5,0.6L86.9,90.5"/>
	<path fill="#00539B" d="M91.2,91.9c0,0.2,0,0.4,0.1,0.5c0,0,0,0.1,0,0.1c-0.1,0-0.1,0-0.2,0c-0.3,0-0.7,0-1,0
		c-0.6-0.1-1.1-0.4-1.4-1c-0.2-0.4-0.3-1-0.2-1.5c0.1-0.5,0.3-1,0.6-1.4c0.4-0.4,1-0.6,1.7-0.4c0.2,0,0.5,0.2,0.6,0.2
		c0.1,0.1,0.2,0.1,0.3,0.1c0,0.2,0,0.5-0.1,1c0,0.1-0.1,0-0.2,0c0-0.6-0.3-1-0.8-1.1c-0.9-0.2-1.4,0.5-1.5,1.6
		c-0.1,0.5,0,1.1,0.2,1.5c0.2,0.5,0.6,0.7,0.9,0.7c0.2,0.1,0.4,0,0.5-0.1c0-0.1,0.1-0.2,0.1-0.4l0-0.2c0.1-0.4,0.1-0.5-0.3-0.6
		l-0.2-0.1c0-0.1,0-0.2,0-0.2c0.2,0.1,0.4,0.1,0.8,0.2c0.2,0,0.4,0.1,0.6,0.1c0,0,0,0.1,0,0.2h-0.1c-0.2,0-0.2,0-0.3,0.4L91.2,91.9"
		/>
	<path fill="#00539B" d="M94.2,91.1c-0.3,0-0.3,0-0.3,0.2l0,0.9c0,0.7,0,0.7,0.3,0.7l0.2,0c0,0,0,0.2,0,0.2c-0.3,0-0.5,0-0.7-0.1
		c-0.2,0-0.5,0-0.7,0c0,0,0-0.1,0-0.2l0.1,0c0.3,0,0.3,0,0.3-0.7l0.1-2.4c0-0.7,0-0.7-0.3-0.7l-0.1,0c0,0,0-0.2,0-0.2
		c0.2,0,0.5,0,0.7,0.1c0.2,0,0.5,0,0.7,0c0,0,0,0.2,0,0.2l-0.1,0c-0.3,0-0.3,0-0.3,0.7l0,0.8c0,0.2,0,0.2,0.3,0.2l1.2,0.1
		c0.3,0,0.3,0,0.3-0.2l0-0.8c0-0.7,0-0.7-0.3-0.7l-0.1,0c0,0,0-0.2,0-0.2c0.2,0,0.5,0,0.7,0.1c0.2,0,0.5,0,0.7,0c0,0,0,0.2,0,0.2
		l-0.1,0c-0.3,0-0.3,0-0.3,0.7l-0.1,2.4c0,0.7,0,0.7,0.3,0.7l0.1,0c0,0,0,0.2,0,0.2c-0.2,0-0.5,0-0.7-0.1c-0.2,0-0.5,0-0.7,0
		c0,0,0-0.1,0-0.2l0.1,0c0.3,0,0.3,0,0.3-0.7l0-0.9c0-0.2,0-0.2-0.3-0.2L94.2,91.1"/>
	<path fill="#00539B" d="M99.5,89.8c0-0.3,0-0.3-0.1-0.3h-0.3c-0.5,0-0.7,0.1-0.9,0.6c0,0-0.2,0-0.2,0c0.1-0.3,0.2-0.7,0.2-1
		c0,0,0,0,0.1,0c0,0,0,0,0.1,0c0,0.2,0.1,0.2,0.5,0.2h2.2c0.3,0,0.4,0,0.4-0.2c0,0,0,0,0.1,0c0,0,0.1,0,0.1,0
		c-0.1,0.3-0.1,0.8-0.1,1c0,0.1-0.1,0.1-0.2,0c-0.1-0.5-0.2-0.6-0.7-0.6h-0.3c-0.1,0-0.1,0-0.2,0.3l-0.1,2.7c0,0.7,0,0.7,0.3,0.7
		l0.2,0c0,0,0,0.2,0,0.2c-0.3,0-0.6,0-0.8,0c-0.2,0-0.5,0-0.8,0c0,0,0-0.2,0-0.2l0.2,0c0.3,0,0.3,0,0.3-0.7L99.5,89.8"/>
	<path fill="#00539B" d="M57.8,13.8c0.2,1.3,1.1,3,3.3,2.7c1.5-0.2,2.5-1.1,2.3-3c-0.2-1.4-1.3-2.9-3.3-2.7
		C58.9,10.9,57.6,11.8,57.8,13.8L57.8,13.8z M65.2,13.1c0.2,1.8-1.5,3.5-4.1,3.8c-2.9,0.4-4.8-0.9-5-2.6c-0.2-1.9,1.5-3.6,4.2-3.9
		C63.2,10,65,11.4,65.2,13.1"/>
	<path fill="#00539B" d="M71.4,10c0.8,0,1.6,0,1.8,0c0,0.2,0,0.9,0,1.4c-0.1,0.1-0.3,0.1-0.4,0c-0.1-0.5-0.3-0.8-0.8-0.9
		c-0.3-0.1-0.7-0.1-1.1-0.1l-0.7,0c-0.5,0-0.5,0-0.5,0.6l0,1.7c0,0.2,0,0.3,0.3,0.3l0.8,0c1.1,0,1.3,0,1.4-0.4l0.1-0.3
		c0.1-0.1,0.3-0.1,0.4,0c0,0.2,0,0.6,0,0.9c0,0.4,0,0.7,0,1c-0.1,0.1-0.3,0.1-0.4,0l-0.1-0.4c-0.1-0.4-0.3-0.4-1.5-0.4l-0.8,0
		c-0.3,0-0.3,0-0.3,0.3l0,1.3c0,1,0.1,1,0.7,1.1l0.5,0c0.1,0.1,0.1,0.2,0,0.3c-0.8,0-1.4,0-2,0c-0.6,0-1.2,0-1.7,0
		c-0.1,0-0.1-0.2,0-0.3l0.3,0c0.6-0.1,0.7-0.1,0.7-1.1l0-3.5c0-1-0.1-1-0.7-1.1l-0.2,0c-0.1-0.1-0.1-0.2,0-0.3c0.5,0,1,0,1.6,0
		L71.4,10"/>
	<path fill="#00539B" d="M43.8,20.1c-0.2-0.5-0.4-0.6-0.9-0.8L40.4,18c-0.4-0.2-0.6-0.3-1.1-0.1L39,18c-0.1,0-0.2-0.2-0.1-0.3
		c0.5-0.2,1-0.5,1.5-0.7c0.5-0.3,1.2-0.6,1.5-0.8c0.1,0,0.2,0.1,0.2,0.2l-0.3,0.2c-0.2,0.1-0.2,0.2-0.2,0.2c0,0.1,0.1,0.1,0.4,0.3
		c0.8,0.5,1.6,0.9,2.4,1.3c0.1-0.9,0.3-1.7,0.4-2.5c0-0.4,0.1-0.6,0-0.7c0-0.1-0.2-0.1-0.3,0l-0.4,0.1c-0.1,0-0.2-0.2-0.1-0.3
		c0.5-0.2,0.9-0.4,1.2-0.6c0.4-0.2,0.7-0.4,1.1-0.6c0.1,0,0.2,0.1,0.2,0.2L46,14.4c-0.5,0.3-0.5,0.6-0.7,1.6c-0.1,0.7-0.2,1.3-0.4,2
		c-0.1,0.6-0.1,0.8,0.2,1.4l0.3,0.5c0.5,0.9,0.6,0.9,1.2,0.6l0.5-0.2c0.1,0,0.2,0.2,0.1,0.3c-0.7,0.4-1.2,0.6-1.7,0.9
		c-0.5,0.3-1,0.6-1.6,0.9c-0.1,0-0.2-0.1-0.2-0.2l0.3-0.2c0.5-0.3,0.6-0.4,0.1-1.3L43.8,20.1"/>
	<path fill="#00539B" d="M25.9,37.1c-0.3,0.1-0.9-0.2-1.3-0.6c0-0.1,0.1-0.3,0.2-0.3c0.5,0.1,1.7,0.2,2.6-0.7
		c0.6-0.8,0.7-1.5,0.2-1.8c-0.4-0.3-1-0.4-1.9,0.1L25.1,34c-0.9,0.5-1.9,0.8-2.6,0.2c-0.7-0.6-0.7-1.8,0.5-3.3
		c0.4-0.5,0.8-0.8,1.3-1.2c0.3,0,0.8,0.3,1.2,0.6c0,0.1-0.1,0.3-0.2,0.3c-0.5-0.2-1.3-0.2-2,0.6c-0.7,0.8-0.6,1.4-0.2,1.8
		c0.3,0.3,0.9,0.2,1.7-0.2l0.8-0.4c0.8-0.4,1.8-0.8,2.6-0.2c0.8,0.7,0.7,2.1-0.5,3.5C26.8,36.7,26.2,37,25.9,37.1"/>
	<path fill="#00539B" d="M31.9,29c0.7,0.7,0.8,0.7,1.3,0.3l0.2-0.2c0.1,0,0.2,0.1,0.2,0.2c-0.4,0.4-0.9,0.8-1.3,1.2
		c-0.4,0.4-0.8,0.8-1.2,1.2c-0.1,0-0.2-0.1-0.2-0.2l0.2-0.2c0.4-0.5,0.5-0.6-0.2-1.3l-2.4-2.5c-0.7-0.7-0.8-0.7-1.3-0.3l-0.2,0.2
		c-0.1,0-0.2-0.1-0.2-0.2c0.4-0.4,0.9-0.8,1.3-1.2c0.4-0.4,0.8-0.8,1.2-1.2c0.1,0,0.2,0.1,0.2,0.2l-0.2,0.2
		c-0.4,0.5-0.5,0.6,0.2,1.3L31.9,29"/>
	<path fill="#00539B" d="M34,21.9c-0.2-0.3-0.3-0.3-0.5-0.1l-0.6,0.4c-1,0.7-1.2,1-1.1,1.9c0,0.1-0.3,0.2-0.4,0.2
		c-0.1-0.5-0.3-1.1-0.4-1.5c0,0,0-0.1,0.1-0.1c0,0,0.1-0.1,0.1,0c0.2,0.2,0.3,0.1,1.1-0.5l4.3-3.1c0.5-0.4,0.7-0.5,0.7-0.8
		c0,0,0.1-0.1,0.1-0.1c0.1,0,0.1-0.1,0.2-0.1c0.1,0.4,0.5,1.1,0.7,1.3c0,0.1-0.2,0.2-0.3,0.3c-0.6-0.5-0.9-0.5-2,0.3l-0.6,0.4
		c-0.3,0.2-0.3,0.2,0,0.5l2.4,3.3c0.6,0.8,0.7,0.8,1.2,0.5l0.4-0.2c0.1,0,0.2,0.1,0.1,0.2c-0.6,0.4-1.1,0.7-1.6,1.1
		c-0.5,0.3-1,0.7-1.6,1.2c-0.1,0-0.2-0.1-0.2-0.2l0.4-0.4c0.5-0.4,0.6-0.5,0-1.3L34,21.9"/>
	<path fill="#00539B" d="M19.9,94.7c0.6-0.3,0.8-1,0.5-1.6c-0.3-0.6-1.1-0.8-1.7-0.5c-0.6,0.3-0.8,1-0.5,1.6
		C18.6,94.8,19.3,95.1,19.9,94.7"/>
	<path fill="#00539B" d="M53.3,121.6c0.3,0.1,0.4,0.1,0.4-0.2l-0.2-1.2c-0.1-0.5-0.1-0.7-0.2-0.8l0,0c-0.1,0.1-0.2,0.2-0.6,0.6
		l-0.8,0.9c-0.2,0.2-0.2,0.2,0.1,0.3L53.3,121.6L53.3,121.6z M51.6,121.6c-0.3-0.1-0.3-0.1-0.5,0.1l-0.8,1c-0.4,0.5-0.4,0.5,0.1,0.7
		l0.3,0.1c0.1,0.1,0,0.2-0.1,0.3c-0.4-0.1-0.8-0.2-1.3-0.4c-0.4-0.1-0.8-0.2-1.2-0.3c-0.1-0.1-0.1-0.2,0.1-0.3l0.4,0.1
		c0.4,0.1,0.5,0,0.8-0.2c0.2-0.2,0.5-0.5,0.9-0.9l2.6-2.8c0.2-0.2,0.4-0.4,0.4-0.6c0.5,0.1,1-0.2,1-0.2c0.1,0,0.2,0.1,0.2,0.1
		c0.1,0.5,0.1,0.9,0.2,1.4l0.8,4.3c0.1,0.7,0.2,0.8,0.8,1l0.2,0.1c0.1,0.1,0,0.2-0.1,0.3c-0.5-0.2-1-0.3-1.6-0.5
		c-0.5-0.1-1.1-0.3-1.5-0.4c-0.1-0.1-0.1-0.2,0-0.3l0.3,0c0.5,0.1,0.5,0,0.5-0.4l-0.2-1.4c-0.1-0.3-0.1-0.3-0.4-0.4L51.6,121.6"/>
	<path fill="#00539B" d="M45.6,115.7c0.2-0.4,0.2-0.4-0.1-0.5l-0.7-0.3c-1.1-0.5-1.4-0.6-2.2-0.1c-0.1,0-0.3-0.1-0.3-0.2
		c0.4-0.4,0.8-0.8,1.1-1.1c0,0,0.1,0,0.1,0c0,0,0.1,0.1,0.1,0.1c0,0.2,0.1,0.3,0.9,0.7l4.8,2.3c0.6,0.3,0.8,0.3,1,0.2
		c0.1,0,0.1,0,0.2,0c0.1,0,0.1,0.1,0.1,0.1c-0.3,0.3-0.7,1-0.8,1.3c-0.1,0-0.3,0-0.4-0.1c0.2-0.7,0-1-1.2-1.6l-0.7-0.3
		c-0.3-0.1-0.3-0.1-0.5,0.2l-1.8,3.7c-0.4,0.9-0.3,1,0.2,1.3l0.4,0.2c0.1,0.1,0,0.2-0.1,0.2c-0.7-0.3-1.2-0.6-1.7-0.9
		c-0.5-0.2-1.1-0.5-1.8-0.8c-0.1-0.1,0-0.3,0.1-0.3l0.5,0.2c0.6,0.2,0.7,0.3,1.1-0.6L45.6,115.7"/>
	<path fill="#00539B" d="M38,116.1c-0.2,0.2-0.8,1.2-0.9,1.4c-0.1,0-0.3,0-0.4-0.1c-0.1-0.3-0.2-0.8-0.5-1.9l-1-3.8
		c-0.3-1-0.4-1.6-0.5-1.8c0,0-0.1,0.1-0.4,0.5l-1.1,1.5c-0.4,0.6-0.9,1.3-0.9,1.7c0,0.2,0.2,0.4,0.4,0.6l0.2,0.2
		c0.1,0.1-0.1,0.3-0.2,0.2c-0.4-0.3-0.8-0.6-1.2-0.9c-0.4-0.3-0.7-0.5-1.1-0.8c-0.1-0.1,0-0.2,0.1-0.2l0.3,0.1
		c0.2,0.1,0.4,0.2,0.6,0.2c0.3-0.1,0.8-0.8,1.2-1.4l1.3-1.8c0.4-0.6,0.5-0.7,0.3-1.2c-0.1-0.2-0.3-0.4-0.5-0.5l-0.1-0.1
		c0-0.1,0.1-0.2,0.2-0.2c0.4,0.3,1,0.7,1.2,0.9c0.2,0.2,0.5,0.3,0.7,0.5c-0.1,0.5,0.4,2.2,0.6,2.8l0.5,1.6c0.2,0.7,0.6,2.2,0.7,2.3
		c0,0,0.1,0,0.2-0.2l1.1-1.5c0.4-0.6,0.9-1.3,0.9-1.7c0-0.2-0.2-0.3-0.4-0.6l-0.2-0.2c-0.1-0.1,0.1-0.3,0.2-0.2
		c0.4,0.3,0.8,0.6,1.2,0.9c0.5,0.3,0.7,0.5,1.1,0.8c0.1,0.1,0,0.2-0.1,0.2l-0.3-0.1c-0.2-0.1-0.4-0.2-0.6-0.1
		c-0.3,0.1-0.8,0.8-1.2,1.4L38,116.1"/>
	<path fill="#00539B" d="M28.5,106.5c0.2,0.3,0.3,0.3,0.4,0.1l0.5-1.2c0.2-0.5,0.3-0.7,0.3-0.8l0,0c-0.1,0-0.3,0.1-0.8,0.2l-1.2,0.3
		c-0.3,0.1-0.3,0.1-0.1,0.3L28.5,106.5L28.5,106.5z M27.1,105.6c-0.2-0.2-0.2-0.2-0.5-0.2l-1.2,0.4c-0.6,0.2-0.6,0.2-0.3,0.6
		l0.2,0.3c0,0.1-0.1,0.2-0.2,0.2c-0.3-0.3-0.6-0.6-0.9-1c-0.3-0.3-0.6-0.6-0.9-0.9c0-0.1,0.1-0.2,0.2-0.2l0.3,0.3
		c0.3,0.3,0.4,0.3,0.8,0.2c0.3-0.1,0.7-0.2,1.3-0.3l3.7-1c0.3-0.1,0.6-0.1,0.7-0.3c0.4,0.3,0.9,0.3,0.9,0.4c0.1,0.1,0.1,0.1,0.1,0.2
		c-0.2,0.4-0.4,0.9-0.6,1.3l-1.7,4c-0.3,0.6-0.3,0.7,0.1,1.3l0.1,0.2c0,0.1-0.1,0.2-0.2,0.2c-0.3-0.4-0.7-0.8-1.1-1.3
		c-0.4-0.4-0.8-0.8-1.1-1.1c0-0.1,0.1-0.2,0.2-0.2l0.2,0.2c0.3,0.3,0.4,0.3,0.6-0.1l0.5-1.3c0.1-0.3,0.1-0.3-0.2-0.6L27.1,105.6"/>
	<path fill="#00539B" d="M19.6,99.5c0-0.3,0.5-0.8,1-1.1c0.1,0,0.3,0.2,0.3,0.3c-0.3,0.5-0.7,1.6,0,2.7c0.6,0.8,1.2,1,1.7,0.7
		c0.4-0.3,0.6-0.8,0.4-1.9l-0.1-0.6c-0.2-1-0.2-2.1,0.5-2.5c0.8-0.5,2-0.2,3,1.4c0.4,0.6,0.6,1,0.8,1.6c-0.1,0.2-0.5,0.7-0.9,0.9
		c-0.1,0-0.2-0.2-0.3-0.3c0.3-0.4,0.6-1.2-0.1-2.1c-0.6-0.9-1.2-0.9-1.6-0.7c-0.3,0.2-0.5,0.8-0.3,1.7l0.2,0.8
		c0.2,0.9,0.2,2-0.5,2.5c-0.9,0.6-2.2,0.1-3.2-1.4C19.8,100.5,19.7,99.8,19.6,99.5"/>
	<path fill="#00539B" d="M14.9,65.8c1,0,1-0.1,1.1-0.7l0-0.3c0.1-0.1,0.2-0.1,0.3,0c0,0.6,0,1.2,0,1.7c0,0.6,0,1.2,0,1.7
		c0,0.1-0.2,0.1-0.3,0l0-0.3c-0.1-0.6-0.1-0.7-1.1-0.7l-3.5,0c-1,0-1,0.1-1.1,0.7l0,0.3c-0.1,0.1-0.2,0.1-0.3,0c0-0.6,0-1.2,0-1.7
		c0-0.6,0-1.2,0-1.7c0-0.1,0.2-0.1,0.3,0l0,0.3c0.1,0.6,0.1,0.7,1.1,0.7L14.9,65.8"/>
	<path fill="#00539B" d="M15.5,89.4c-1,0.3-1,0.4-0.9,1l0,0.2c0,0.1-0.2,0.1-0.3,0c-0.1-0.5-0.3-1.1-0.4-1.6
		c-0.2-0.6-0.3-1.1-0.5-1.7c0-0.1,0.2-0.2,0.2-0.1l0.1,0.3c0.2,0.6,0.3,0.7,1.3,0.4l2.1-0.6c1.3-0.4,2.2-1.2,1.7-2.9
		c-0.5-1.6-1.6-2-3-1.6l-1.1,0.3c-0.7,0.2-1.5,0.5-1.7,0.8c-0.1,0.2-0.1,0.4-0.1,0.7l0,0.3c0,0.1-0.2,0.2-0.3,0
		c-0.1-0.4-0.2-0.9-0.4-1.4c-0.2-0.5-0.3-0.9-0.4-1.3c0-0.1,0.2-0.2,0.2-0.1l0.1,0.3c0.1,0.2,0.2,0.4,0.4,0.5
		c0.3,0.1,1.1-0.1,1.8-0.4l1.1-0.3c0.8-0.2,1.6-0.3,2.3,0.2c0.7,0.5,1.1,1.4,1.4,2.2c0.3,1.2,0.4,2,0.2,2.7
		c-0.2,0.7-0.8,1.1-1.7,1.4L15.5,89.4"/>
	<path fill="#00539B" d="M15,71.3c0.3,0,1.4-0.2,1.6-0.2c0.1,0.1,0.2,0.3,0.2,0.4c-0.2,0.2-0.4,0.6-1.1,1.7l-2.1,3.3
		c-0.6,0.9-0.9,1.4-1,1.6c0,0,0.1,0,0.6,0l1.8-0.2c0.7-0.1,1.6-0.2,1.8-0.5C17,77.3,17,77,17,76.7l0-0.3c0.1-0.1,0.2-0.1,0.3,0
		c0,0.5,0.1,1,0.2,1.5c0.1,0.5,0.1,0.9,0.2,1.3c0,0.1-0.2,0.2-0.3,0.1L17.2,79c-0.1-0.2-0.1-0.5-0.3-0.5c-0.3-0.1-1.1,0-1.9,0.1
		l-2.2,0.3c-0.7,0.1-0.9,0.1-1.1,0.6c-0.1,0.2-0.1,0.5-0.1,0.7l0,0.2c0,0.1-0.2,0.1-0.3,0c0-0.5-0.1-1.2-0.2-1.5
		c0-0.3-0.1-0.6-0.1-0.9c0.4-0.3,1.4-1.8,1.7-2.3l0.9-1.4c0.4-0.6,1.2-1.9,1.3-2c0,0-0.1,0-0.2,0l-1.8,0.2c-0.7,0.1-1.6,0.2-1.8,0.5
		c-0.1,0.1-0.2,0.3-0.2,0.7l0,0.3c-0.1,0.1-0.2,0.1-0.3,0c0-0.5-0.1-1-0.2-1.5c-0.1-0.6-0.1-0.9-0.2-1.3c0-0.1,0.2-0.2,0.3-0.1
		l0.1,0.3c0.1,0.2,0.1,0.5,0.3,0.5c0.3,0.1,1.1,0,1.9,0L15,71.3"/>
	<path fill="#00539B" d="M15.1,57.9c0.8,0.6,1.8,1.4,2.2,1.7c0,0,0,0.1,0,0.2c0,0.1,0,0.2-0.1,0.2c-0.4,0.1-0.9,0.2-1.3,0.4
		l-4.3,1.7c-0.7,0.3-0.8,0.4-1,0.9l-0.1,0.3c-0.1,0.1-0.2,0.1-0.3-0.1c0.1-0.5,0.2-1,0.2-1.5c0.1-0.6,0.1-1,0.2-1.7
		c0.1-0.1,0.2-0.1,0.3,0l0,0.3c0,0.3,0,0.4,0.1,0.4c0.1,0,0.3-0.1,1.3-0.5l1.8-0.7c0.5-0.2,1.1-0.4,1.3-0.5
		c-1.1-0.9-2.3-1.8-3.4-2.7c-0.3-0.3-0.4-0.2-0.5,0.1L11.5,57c-0.1,0.1-0.2,0-0.3-0.1c0.1-0.5,0.2-1,0.2-1.4
		c0.1-0.5,0.1-0.9,0.1-1.2c0.1-0.1,0.2-0.1,0.3,0l0,0.3c0,0.3,0,0.6,0.3,0.8c0.4,0.4,1,0.9,1.8,1.6L15.1,57.9"/>
	<path fill="#00539B" d="M13.7,51.5c-1-0.3-1-0.2-1.3,0.3L12.3,52c-0.1,0.1-0.2,0-0.3-0.1c0.2-0.5,0.4-1,0.6-1.6l0.8-2.3
		c0.3-0.8,0.5-1.5,0.5-1.7c0.2,0,0.9,0.2,1.3,0.2c0.1,0.1,0,0.3-0.1,0.4c-0.6,0-0.9,0.1-1.1,0.5c-0.2,0.3-0.3,0.6-0.4,1l-0.3,0.8
		c-0.2,0.5-0.2,0.5,0.4,0.7l1.5,0.5c0.2,0.1,0.2,0.1,0.3-0.2l0.2-0.6c0.4-1.1,0.4-1.3,0.1-1.5l-0.3-0.2c0-0.1,0-0.4,0.1-0.4
		c0.2,0.1,0.6,0.2,0.9,0.3c0.3,0.1,0.7,0.2,1,0.3c0,0.1,0,0.3-0.1,0.4l-0.4,0c-0.4,0-0.5,0.2-0.8,1.2L16,50.3
		c-0.1,0.3-0.1,0.3,0.1,0.4l1.1,0.4c0.5,0.2,0.8,0.2,1,0.1c0.2-0.1,0.3-0.3,0.7-1.3c0.5-1.6,0.4-1.9-0.2-2.6c0-0.1,0.1-0.3,0.2-0.4
		c0.4,0.2,0.9,0.7,1.1,0.9c-0.2,0.5-0.6,1.6-1,3l-0.5,1.4c-0.2,0.5-0.4,1.3-0.6,1.8c-0.1,0.1-0.2,0-0.3-0.1l0.1-0.5
		c0.1-0.6,0.2-0.7-0.8-1L13.7,51.5"/>
	<path fill="#00539B" d="M19.1,42.1c0.3,0.1,0.3,0.2,0.6-0.4c0.6-1.1,0.5-1.8-0.3-2.3c-0.6-0.4-1.5-0.1-2.1,0.9
		c-0.3,0.6-0.3,0.6,0.1,0.8L19.1,42.1L19.1,42.1z M17.1,42.7c-0.8-0.4-0.9-0.5-1.2,0L15.7,43c-0.1,0-0.2,0-0.2-0.1
		c0.4-0.7,0.9-1.7,1.4-2.6c0.5-0.9,1-1.6,1.5-2c0.5-0.4,1.2-0.6,1.8-0.3c0.8,0.4,0.7,1.4,0.5,2.1c0,0.1,0.1,0.1,0.1,0.1
		c1.6-0.3,2.6-0.4,3.3-0.8c0.4-0.2,0.6-0.5,0.7-0.6c0.1,0,0.2,0,0.2,0.1c-0.1,0.1-0.1,0.4-0.4,0.8c-0.6,1.1-1.3,1.5-2.4,1.7
		c-0.5,0.1-1.1,0.2-1.6,0.3c-0.4,0.1-0.5,0.2-0.7,0.5c-0.2,0.3-0.2,0.4,0,0.5l1.1,0.6c0.9,0.5,1,0.4,1.3-0.1l0.2-0.2
		c0.1,0,0.2,0,0.2,0.2c-0.3,0.5-0.6,1-0.9,1.5c-0.3,0.5-0.6,1-0.8,1.5c-0.1,0.1-0.3,0-0.3-0.1l0.1-0.3c0.3-0.6,0.3-0.7-0.6-1.2
		L17.1,42.7"/>
	<path fill="#00539B" d="M117.9,93c0.6-0.3,0.9-1,0.6-1.6c-0.3-0.6-1-0.8-1.5-0.6c-0.6,0.3-0.9,1-0.6,1.5
		C116.6,93,117.3,93.3,117.9,93"/>
	<path fill="#00539B" d="M91.5,16.3c-0.1,0-0.3,0-0.4-0.1c0-0.6-0.2-1.6-1.8-2.2c-1.5-0.6-3.4-0.4-4.1,1.4c-0.7,1.9,0.5,3.4,2.1,4
		c1.5,0.6,2.5,0.1,3-0.3c0.1,0,0.3,0.1,0.3,0.2c-0.3,0.6-0.9,1-1.1,1.1c-0.2,0-0.3-0.1-0.5-0.1c-0.3,0-1.2-0.2-2-0.5
		c-1.2-0.5-2.2-1-2.9-1.8c-0.8-0.8-1.2-1.9-0.8-3.1c0.4-1,1.3-1.6,2.4-1.7c1.1-0.1,2.4,0.1,3.6,0.5c0.7,0.3,1.5,0.7,2,1
		c0.1,0.1,0.2,0.1,0.3,0.2C91.9,15.1,91.7,15.6,91.5,16.3"/>
	<path fill="#00539B" d="M96.3,21.2c0.3,0.2,0.4,0.2,0.4-0.1l0.1-1.3c0.1-0.5,0.1-0.7,0.1-0.8l0,0c-0.1,0-0.3,0.2-0.7,0.4l-1,0.7
		c-0.3,0.2-0.2,0.2,0,0.3L96.3,21.2L96.3,21.2z M94.8,20.8c-0.3-0.2-0.3-0.2-0.5,0l-1,0.7c-0.5,0.3-0.5,0.4-0.1,0.7l0.3,0.2
		c0,0.1-0.1,0.2-0.2,0.2c-0.3-0.2-0.7-0.4-1.2-0.7c-0.4-0.2-0.7-0.4-1.1-0.6c-0.1-0.1,0-0.2,0.1-0.2l0.4,0.2c0.3,0.2,0.5,0.2,0.8,0
		c0.3-0.1,0.6-0.4,1.1-0.7l3.2-2c0.3-0.2,0.5-0.3,0.6-0.5c0.4,0.2,1,0.1,1,0.1c0.1,0.1,0.1,0.1,0.2,0.2c0,0.5-0.1,0.9-0.2,1.4
		l-0.4,4.4c-0.1,0.7,0,0.8,0.5,1.2l0.2,0.1c0.1,0.1,0,0.2-0.1,0.2c-0.4-0.3-0.9-0.5-1.4-0.9c-0.5-0.3-1-0.6-1.4-0.8
		c-0.1-0.1,0-0.2,0.1-0.3l0.3,0.1c0.4,0.2,0.5,0.2,0.5-0.3l0.1-1.4c0-0.3,0-0.3-0.3-0.5L94.8,20.8"/>
	<path fill="#00539B" d="M103,27.2c-0.3,0.3-0.5,0.6-0.5,0.9c0,0.2,0.1,0.4,0.9,1.1c1,1,1.2,1.1,2.3,0.8c0.1,0.1,0.3,0.2,0.3,0.3
		c-0.3,0.2-1,0.5-1.3,0.6c-0.4-0.4-1.2-1.2-2.2-2.2l-1-0.9c-0.5-0.5-1-0.9-1.4-1.3c0-0.1,0.1-0.3,0.2-0.2l0.3,0.2
		c0.5,0.4,0.6,0.4,1.3-0.3l2.4-2.5c0.7-0.7,0.6-0.8,0.2-1.3l-0.2-0.3c0-0.1,0.1-0.2,0.2-0.2c0.5,0.5,0.9,0.9,1.3,1.3
		c0.4,0.4,0.8,0.8,1.3,1.2c0.1,0.1-0.1,0.3-0.2,0.2l-0.2-0.2c-0.5-0.4-0.6-0.4-1.3,0.3L103,27.2"/>
	<path fill="#00539B" d="M109.2,33.9c-0.8,0.6-0.7,0.7-0.4,1.2l0.2,0.2c0,0.1-0.1,0.2-0.2,0.1c-0.3-0.5-0.7-0.9-1-1.4
		c-0.4-0.4-0.7-0.9-1.1-1.4c0-0.1,0.1-0.2,0.2-0.2l0.2,0.2c0.4,0.4,0.5,0.5,1.3-0.1l2.8-2.2c0.8-0.6,0.7-0.7,0.4-1.2l-0.2-0.2
		c0-0.1,0.1-0.2,0.2-0.1c0.3,0.5,0.7,0.9,1.1,1.4c0.4,0.4,0.7,0.9,1.1,1.3c0,0.1-0.1,0.2-0.2,0.2l-0.2-0.2c-0.4-0.4-0.5-0.5-1.3,0.1
		L109.2,33.9"/>
	<path fill="#00539B" d="M118.1,37.9c0.4,0.7,0.8,1.3,1,1.5c-0.2,0.1-0.8,0.5-1.1,0.7c-0.1,0-0.2-0.2-0.3-0.3
		c0.4-0.4,0.5-0.7,0.3-1.2c-0.1-0.3-0.3-0.6-0.5-1l-0.4-0.6c-0.3-0.5-0.3-0.4-0.8-0.2l-1.4,0.9c-0.2,0.1-0.2,0.1-0.1,0.4l0.4,0.6
		c0.6,1,0.7,1.1,1.1,1l0.3-0.1c0.1,0,0.2,0.2,0.2,0.3c-0.2,0.1-0.5,0.3-0.8,0.5c-0.3,0.2-0.6,0.4-0.8,0.6c-0.1,0-0.2-0.2-0.2-0.3
		l0.3-0.3c0.3-0.3,0.2-0.5-0.4-1.4l-0.4-0.6c-0.2-0.3-0.2-0.3-0.4-0.1l-1.1,0.7c-0.8,0.5-0.8,0.6-0.5,1.2l0.2,0.5
		c0,0.1-0.2,0.2-0.2,0.1c-0.4-0.7-0.7-1.2-1-1.7c-0.3-0.5-0.6-1-1-1.5c0-0.1,0.1-0.2,0.2-0.2l0.2,0.2c0.4,0.5,0.5,0.6,1.3,0l3-1.9
		c0.8-0.5,0.8-0.6,0.5-1.2l-0.1-0.2c0-0.1,0.2-0.2,0.2-0.1c0.2,0.4,0.5,0.9,0.8,1.4L118.1,37.9"/>
	<path fill="#00539B" d="M118.1,44.1c-1.2,0.4-2.6,1.8-1.9,3.8c0.5,1.4,1.7,2.2,3.4,1.6c1.3-0.5,2.6-1.9,1.9-3.8
		C121.2,44.5,120,43.4,118.1,44.1L118.1,44.1z M120.5,51.1c-1.7,0.6-3.7-0.7-4.6-3.2c-1-2.7-0.2-4.8,1.4-5.4
		c1.8-0.7,3.8,0.7,4.7,3.2C123,48.6,122.1,50.6,120.5,51.1"/>
	<path fill="#00539B" d="M122.1,55.7c-0.3,0.1-0.3,0.1-0.2,0.7c0.2,1.2,0.8,1.7,1.7,1.6c0.7-0.1,1.3-0.9,1.1-2
		c-0.1-0.7-0.1-0.7-0.6-0.6L122.1,55.7L122.1,55.7z M123.2,54c0.9-0.2,1-0.2,0.9-0.8l0-0.3c0-0.1,0.2-0.1,0.3,0
		c0.2,0.8,0.4,1.9,0.6,2.9c0.2,1,0.2,1.9,0.1,2.5c-0.1,0.7-0.5,1.2-1.2,1.4c-0.9,0.1-1.4-0.7-1.7-1.3c0-0.1-0.1,0-0.2,0
		c-1.1,1.2-1.8,2-2,2.7c-0.2,0.4-0.2,0.8-0.1,0.9c0,0.1-0.1,0.1-0.2,0.1c-0.1-0.1-0.1-0.4-0.2-0.8c-0.2-1.2,0-2,0.8-2.9
		c0.3-0.4,0.8-0.9,1.1-1.2c0.2-0.3,0.3-0.4,0.2-0.8c-0.1-0.4-0.1-0.4-0.3-0.4l-1.2,0.2c-1,0.2-1,0.3-0.9,0.9l0,0.3
		c0,0.1-0.2,0.1-0.3,0c-0.1-0.6-0.2-1.1-0.3-1.7c-0.1-0.6-0.2-1.1-0.3-1.7c0-0.1,0.2-0.2,0.3-0.1l0.1,0.3c0.2,0.6,0.2,0.7,1.2,0.5
		L123.2,54"/>
	<path fill="#00539B" d="M121.5,71.4c-0.3,0-1.4,0-1.7,0.1c-0.1-0.1-0.1-0.3-0.1-0.4c0.2-0.2,0.5-0.6,1.3-1.5l2.5-3
		c0.7-0.8,1-1.3,1.2-1.5c0,0-0.1,0-0.6,0l-1.8,0c-0.7,0-1.6,0-1.9,0.2c-0.1,0.1-0.2,0.3-0.2,0.7l0,0.3c-0.1,0.1-0.2,0.1-0.3,0
		c0-0.5,0-1,0-1.5c0-0.5,0-0.9,0-1.3c0-0.1,0.2-0.1,0.3,0l0,0.3c0,0.2,0.1,0.5,0.2,0.6c0.3,0.2,1.1,0.2,1.9,0.2l2.2,0
		c0.7,0,0.9,0,1.2-0.4c0.1-0.1,0.2-0.5,0.2-0.7l0-0.2c0.1-0.1,0.2-0.1,0.3,0c0,0.5,0,1.2,0,1.5c0,0.3,0,0.6,0,0.9
		c-0.4,0.2-1.6,1.6-1.9,2.1l-1,1.3c-0.4,0.5-1.4,1.8-1.5,1.9c0,0,0.1,0,0.2,0l1.8,0c0.7,0,1.6,0,1.9-0.3c0.1-0.1,0.2-0.3,0.2-0.6
		l0-0.3c0.1-0.1,0.2-0.1,0.3,0c0,0.5,0,1,0,1.5c0,0.6,0,0.9,0,1.4c0,0.1-0.2,0.1-0.3,0l-0.1-0.3c0-0.2-0.1-0.5-0.2-0.6
		c-0.3-0.2-1.1-0.2-1.9-0.2L121.5,71.4"/>
	<path fill="#00539B" d="M120.7,76.7c-1-0.2-1-0.1-1.2,0.5l-0.1,0.3c-0.1,0.1-0.2,0-0.3-0.1c0.1-0.6,0.2-1.1,0.3-1.7
		c0.1-0.6,0.2-1.2,0.3-1.7c0.1-0.1,0.2-0.1,0.3,0l0,0.3c-0.1,0.6,0,0.7,0.9,0.9l3.5,0.6c1,0.2,1,0.1,1.2-0.5l0.1-0.3
		c0.1-0.1,0.2,0,0.3,0.1c-0.1,0.6-0.2,1.1-0.3,1.7c-0.1,0.6-0.2,1.1-0.3,1.7c-0.1,0.1-0.2,0.1-0.3,0l0-0.3c0.1-0.6,0-0.7-0.9-0.9
		L120.7,76.7"/>
	<path fill="#00539B" d="M120.3,83.9c-0.1,0.3-0.1,0.4,0.1,0.4l1.2-0.1c0.5,0,0.7-0.1,0.8-0.1l0,0c0-0.1-0.2-0.2-0.6-0.6l-0.9-0.9
		c-0.2-0.2-0.2-0.2-0.3,0.1L120.3,83.9L120.3,83.9z M120.4,82.3c0.1-0.3,0.1-0.3-0.1-0.5l-0.9-0.9c-0.4-0.4-0.5-0.4-0.7,0.1
		l-0.2,0.3c-0.1,0.1-0.2,0-0.3-0.1c0.2-0.4,0.3-0.8,0.5-1.3c0.1-0.4,0.3-0.8,0.4-1.2c0.1-0.1,0.2,0,0.3,0.1l-0.1,0.4
		c-0.1,0.4-0.1,0.5,0.2,0.8c0.2,0.2,0.5,0.6,0.9,1l2.6,2.8c0.2,0.3,0.4,0.4,0.6,0.5c-0.1,0.5,0.1,1,0.1,1c0,0.1-0.1,0.2-0.1,0.2
		c-0.5,0.1-0.9,0.1-1.4,0.1l-4.3,0.5c-0.7,0.1-0.8,0.1-1.1,0.7l-0.1,0.2c-0.1,0.1-0.2,0-0.3-0.1c0.2-0.5,0.4-0.9,0.6-1.6
		c0.2-0.5,0.3-1.1,0.5-1.5c0.1-0.1,0.2,0,0.3,0.1l-0.1,0.3c-0.1,0.5-0.1,0.5,0.4,0.5l1.4-0.2c0.3,0,0.3-0.1,0.4-0.4L120.4,82.3"/>
	<path fill="#00539B" d="M51.3,16.6c0.6-0.3,0.9-1,0.6-1.6c-0.3-0.6-1-0.9-1.6-0.6c-0.6,0.3-0.9,1-0.6,1.6
		C50,16.6,50.7,16.9,51.3,16.6"/>
	<path fill="#00539B" d="M114.4,99.2c0.2-0.3,0.2-0.4,0-0.4l-1.2-0.2c-0.5-0.1-0.7-0.1-0.8-0.1l0,0c0,0.1,0.2,0.3,0.4,0.7l0.6,1.1
		c0.1,0.3,0.2,0.2,0.3,0L114.4,99.2L114.4,99.2z M113.9,100.8c-0.2,0.3-0.2,0.3,0,0.5l0.6,1.1c0.3,0.5,0.4,0.5,0.7,0.1l0.2-0.3
		c0.1,0,0.2,0.1,0.2,0.2c-0.2,0.3-0.5,0.7-0.8,1.1c-0.2,0.4-0.5,0.7-0.7,1.1c-0.1,0-0.2,0-0.2-0.1l0.2-0.3c0.2-0.3,0.2-0.5,0-0.8
		c-0.1-0.3-0.3-0.7-0.6-1.2l-1.8-3.4c-0.2-0.3-0.3-0.5-0.4-0.6c0.2-0.4,0.1-1,0.1-1c0.1-0.1,0.1-0.1,0.2-0.1
		c0.5,0.1,0.9,0.2,1.4,0.2l4.3,0.7c0.7,0.1,0.8,0.1,1.2-0.4l0.1-0.1c0.1,0,0.2,0,0.2,0.1c-0.3,0.4-0.6,0.8-1,1.4
		c-0.3,0.5-0.6,0.9-0.9,1.3c-0.1,0.1-0.2,0-0.2-0.1l0.1-0.3c0.2-0.4,0.2-0.5-0.2-0.6l-1.4-0.2c-0.3,0-0.3,0-0.5,0.3L113.9,100.8"/>
	<path fill="#00539B" d="M75.1,123c0.4,0,0.4-0.1,0.3-0.3l-0.7-1.1c-0.3-0.5-0.4-0.6-0.5-0.7l0,0c0,0.1-0.1,0.3-0.3,0.8l-0.4,1.2
		c-0.1,0.3-0.1,0.3,0.2,0.2L75.1,123L75.1,123z M73.7,123.7c-0.3,0-0.3,0-0.4,0.3l-0.4,1.2c-0.2,0.6-0.1,0.6,0.3,0.6h0.4
		c0.1,0.1,0.1,0.2,0,0.3c-0.4,0-0.8,0.1-1.4,0.1c-0.4,0.1-0.8,0.1-1.3,0.2c-0.1,0-0.1-0.2,0-0.3l0.4-0.1c0.4-0.1,0.5-0.2,0.7-0.5
		c0.1-0.3,0.3-0.7,0.5-1.2l1.3-3.6c0.1-0.3,0.2-0.6,0.2-0.7c0.4-0.1,0.8-0.6,0.8-0.6c0.1,0,0.2,0,0.2,0c0.3,0.4,0.5,0.8,0.7,1.2
		l2.3,3.7c0.4,0.6,0.4,0.6,1.1,0.7l0.2,0c0.1,0.1,0.1,0.2,0,0.3c-0.5,0-1,0.1-1.7,0.2c-0.6,0.1-1.1,0.2-1.6,0.2
		c-0.1,0-0.1-0.2-0.1-0.3l0.3-0.1c0.5-0.1,0.5-0.2,0.3-0.5l-0.8-1.2c-0.2-0.2-0.2-0.2-0.6-0.2L73.7,123.7"/>
	<path fill="#00539B" d="M83.3,120.8c0.1,0.3,0.1,0.3,0.7,0.1c1.2-0.4,1.6-1,1.4-1.8c-0.2-0.7-1-1.1-2.1-0.8
		c-0.6,0.2-0.6,0.2-0.5,0.6L83.3,120.8L83.3,120.8z M81.4,119.9c-0.3-0.9-0.3-1-0.9-0.8l-0.3,0.1c-0.1,0-0.1-0.2-0.1-0.3
		c0.8-0.3,1.8-0.6,2.8-1c1-0.3,1.8-0.5,2.4-0.4c0.7,0,1.3,0.3,1.5,1c0.3,0.8-0.5,1.5-1,1.9c-0.1,0,0,0.1,0,0.2
		c1.4,0.9,2.2,1.5,2.9,1.7c0.4,0.1,0.8,0.1,0.9,0c0.1,0,0.1,0.1,0.1,0.2c-0.1,0.1-0.4,0.2-0.8,0.3c-1.2,0.4-1.9,0.2-2.9-0.4
		c-0.5-0.3-0.9-0.7-1.4-0.9c-0.3-0.2-0.5-0.2-0.9-0.1c-0.4,0.1-0.4,0.1-0.3,0.3l0.4,1.2c0.3,1,0.4,1,1,0.8l0.3-0.1
		c0.1,0,0.1,0.2,0.1,0.3c-0.5,0.1-1.1,0.3-1.7,0.5c-0.5,0.2-1.1,0.3-1.7,0.5c-0.1,0-0.2-0.2-0.1-0.3l0.3-0.1
		c0.6-0.2,0.7-0.3,0.4-1.3L81.4,119.9"/>
	<path fill="#00539B" d="M92.3,117.1c0.1,0.2,0.1,0.2,0.6,0c1.1-0.5,1.5-1,1.1-1.8c-0.3-0.8-1.2-0.7-2-0.4c-0.6,0.3-0.6,0.3-0.5,0.6
		L92.3,117.1L92.3,117.1z M93.1,119.2c0.3,0.8,0.6,1.1,1.6,0.6c0.8-0.4,1.4-1.1,1-1.8c-0.4-0.9-1.4-1.1-2.8-0.5
		c-0.5,0.2-0.5,0.3-0.4,0.5L93.1,119.2L93.1,119.2z M90.5,116.8c-0.4-0.8-0.4-0.9-1-0.7l-0.3,0.1c-0.1,0-0.2-0.2-0.1-0.2
		c0.5-0.3,1.4-0.7,2.7-1.3c1-0.4,1.8-0.7,2.4-0.7c0.6,0,1.1,0.2,1.3,0.8c0.2,0.5-0.1,1.1-0.9,1.7c0,0-0.1,0.1,0,0.1c0,0,0,0,0.1,0
		c0.9-0.3,2.1-0.3,2.6,0.7c0.2,0.4,0.2,0.9-0.2,1.5c-0.4,0.6-1.1,1.1-2.5,1.7c-0.5,0.2-1,0.4-1.5,0.6c-0.5,0.2-1.1,0.5-1.6,0.7
		c-0.1,0-0.2-0.1-0.1-0.2l0.2-0.1c0.5-0.3,0.6-0.4,0.2-1.3L90.5,116.8"/>
	<path fill="#00539B" d="M101.1,112.8c0.3-0.2,0.3-0.3,0.1-0.4l-1.1-0.6c-0.5-0.3-0.6-0.4-0.7-0.4l0,0c0,0.1,0.1,0.3,0.1,0.8
		l0.2,1.2c0,0.3,0.1,0.3,0.3,0.1L101.1,112.8L101.1,112.8z M100.1,114.1c-0.3,0.2-0.3,0.2-0.2,0.5l0.2,1.2c0.1,0.6,0.2,0.6,0.6,0.4
		l0.3-0.2c0.1,0,0.2,0.1,0.1,0.2c-0.3,0.2-0.7,0.5-1.1,0.8c-0.3,0.3-0.7,0.5-1,0.8c-0.1,0-0.2-0.1-0.2-0.2l0.3-0.3
		c0.3-0.3,0.3-0.4,0.3-0.8c0-0.3-0.1-0.7-0.2-1.3l-0.5-3.8c0-0.3-0.1-0.6-0.2-0.7c0.3-0.3,0.4-0.9,0.5-0.9c0.1-0.1,0.2-0.1,0.2-0.1
		c0.4,0.2,0.8,0.5,1.2,0.7l3.8,2.1c0.6,0.3,0.7,0.4,1.3,0l0.2-0.1c0.1,0,0.2,0.1,0.2,0.2c-0.4,0.3-0.8,0.6-1.4,1
		c-0.4,0.3-0.9,0.7-1.3,1c-0.1,0-0.2-0.1-0.2-0.2l0.2-0.2c0.4-0.3,0.4-0.4,0-0.6l-1.2-0.7c-0.3-0.1-0.3-0.1-0.6,0.1L100.1,114.1"/>
	<path fill="#00539B" d="M106.6,107c0.2,0.2,0.2,0.2,0.7-0.2c0.9-0.9,1-1.6,0.3-2.3c-0.5-0.5-1.5-0.5-2.2,0.3
		c-0.5,0.5-0.5,0.5-0.1,0.8L106.6,107L106.6,107z M104.6,107.2c-0.7-0.6-0.7-0.7-1.2-0.3l-0.3,0.2c-0.1,0-0.2-0.1-0.2-0.2
		c0.5-0.6,1.3-1.4,2-2.2c0.7-0.7,1.4-1.3,1.9-1.5c0.6-0.3,1.3-0.3,1.8,0.1c0.6,0.6,0.3,1.6,0,2.2c0,0.1,0,0.1,0.1,0.1
		c1.6,0.1,2.7,0.2,3.3,0c0.4-0.1,0.7-0.3,0.8-0.4c0.1,0,0.1,0.1,0.2,0.1c-0.1,0.1-0.2,0.3-0.6,0.7c-0.9,0.9-1.6,1.1-2.8,1.1
		c-0.5,0-1.2-0.1-1.6-0.2c-0.4,0-0.5,0-0.8,0.4c-0.3,0.3-0.3,0.3-0.1,0.4l0.9,0.8c0.7,0.7,0.8,0.6,1.3,0.2l0.2-0.2
		c0.1,0,0.2,0.1,0.2,0.2c-0.4,0.4-0.8,0.8-1.2,1.2c-0.4,0.4-0.8,0.8-1.2,1.3c-0.1,0-0.2,0-0.2-0.2l0.2-0.2c0.4-0.5,0.4-0.6-0.3-1.3
		L104.6,107.2"/>
	<path fill="#00539B" d="M65.1,122.3c0,0.2,0,0.3,0.5,0.3c1.2,0.1,1.8-0.3,1.8-1.1c0-0.8-0.8-1.2-1.6-1.2c-0.6,0-0.7,0-0.7,0.4
		L65.1,122.3L65.1,122.3z M65,124.6c0,0.9,0.1,1.2,1.2,1.3c0.9,0,1.7-0.3,1.7-1.2c0-1-0.8-1.6-2.3-1.7c-0.6,0-0.6,0-0.6,0.2
		L65,124.6L65,124.6z M63.7,121.2c0-0.9,0-1-0.6-1.1l-0.3,0c-0.1-0.1-0.1-0.2,0-0.3c0.6,0,1.5,0,3,0.1c1.1,0.1,1.9,0.2,2.5,0.4
		c0.6,0.3,0.9,0.7,0.8,1.3c0,0.6-0.6,1-1.5,1.1c-0.1,0-0.1,0-0.1,0.1c0,0,0,0,0.1,0.1c1,0.2,2.1,0.7,2,1.7c0,0.4-0.2,0.9-0.9,1.2
		c-0.6,0.3-1.5,0.5-3,0.4c-0.6,0-1.1-0.1-1.6-0.1c-0.6,0-1.2-0.1-1.7-0.1c-0.1,0-0.1-0.2,0-0.3l0.3,0c0.6,0,0.7,0,0.8-1L63.7,121.2"
		/>
	<path fill="#00539B" d="M78.5,15c0.6-0.3,0.8-1,0.6-1.6c-0.3-0.6-1-0.8-1.6-0.6c-0.6,0.3-0.8,1-0.6,1.5C77.2,15,77.9,15.3,78.5,15"
		/>
	<path fill="#00539B" d="M108.5,15.3c0.5-0.7,0.3-1.7-0.3-2.2c-0.7-0.5-1.7-0.3-2.2,0.3c-0.5,0.7-0.4,1.7,0.3,2.2
		C107.1,16.1,108,16,108.5,15.3"/>
	<path fill="#00539B" d="M105.7,13.2c0.5-0.7,0.3-1.7-0.5-2.1c-0.7-0.5-1.7-0.3-2.1,0.5c-0.5,0.7-0.3,1.7,0.5,2.1
		C104.3,14.1,105.3,13.9,105.7,13.2"/>
	<path fill="#00539B" d="M102.8,11.3c0.4-0.8,0.1-1.7-0.6-2.1c-0.8-0.5-1.7-0.2-2.1,0.6c-0.5,0.7-0.2,1.7,0.6,2.1
		C101.4,12.3,102.4,12.1,102.8,11.3"/>
	<path fill="#00539B" d="M99.8,9.6c0.4-0.8,0.1-1.7-0.7-2.1c-0.8-0.4-1.7-0.1-2.1,0.7c-0.4,0.8-0.1,1.7,0.6,2.1
		C98.4,10.6,99.4,10.4,99.8,9.6"/>
	<path fill="#00539B" d="M96.6,8c0.4-0.8,0-1.7-0.8-2.1c-0.8-0.3-1.7,0.1-2.1,0.8c-0.3,0.8,0,1.7,0.8,2.1C95.4,9.2,96.3,8.8,96.6,8"
		/>
	<path fill="#00539B" d="M93.5,6.6c0.3-0.8-0.1-1.7-0.9-2c-0.8-0.3-1.7,0.1-2,0.9c-0.3,0.8,0.1,1.7,0.9,2
		C92.2,7.8,93.1,7.4,93.5,6.6"/>
	<path fill="#00539B" d="M90.2,5.4c0.3-0.8-0.1-1.7-1-1.9c-0.8-0.3-1.7,0.2-1.9,1c-0.3,0.8,0.1,1.7,1,2C89.1,6.6,89.9,6.2,90.2,5.4"
		/>
	<path fill="#00539B" d="M86.9,4.3c0.2-0.8-0.3-1.7-1.1-1.9c-0.8-0.3-1.7,0.3-1.9,1.1c-0.2,0.8,0.3,1.7,1.1,1.9
		C85.8,5.6,86.7,5.1,86.9,4.3"/>
	<path fill="#00539B" d="M83.5,3.4c0.2-0.8-0.4-1.7-1.2-1.9c-0.8-0.2-1.7,0.3-1.8,1.2c-0.2,0.8,0.3,1.6,1.2,1.8
		C82.5,4.8,83.4,4.3,83.5,3.4"/>
	<path fill="#00539B" d="M80.1,2.6c0.1-0.8-0.5-1.6-1.3-1.7C78,0.8,77.2,1.4,77,2.2c-0.1,0.8,0.5,1.6,1.3,1.7
		C79.2,4.1,80,3.5,80.1,2.6"/>
	<path fill="#00539B" d="M76.7,2.1c0.1-0.8-0.5-1.6-1.4-1.7c-0.8-0.1-1.6,0.5-1.7,1.4c-0.1,0.8,0.6,1.6,1.4,1.7
		C75.8,3.6,76.6,3,76.7,2.1"/>
	<path fill="#00539B" d="M73.2,1.7c0-0.8-0.6-1.5-1.5-1.6c-0.9-0.1-1.6,0.6-1.7,1.5c0,0.8,0.6,1.6,1.5,1.6
		C72.5,3.3,73.2,2.6,73.2,1.7"/>
	<path fill="#00539B" d="M62.7,1.8c-0.1-0.9-0.8-1.5-1.7-1.4c-0.8,0.1-1.5,0.9-1.4,1.7c0.1,0.8,0.8,1.5,1.7,1.4
		C62.2,3.4,62.9,2.6,62.7,1.8"/>
	<path fill="#00539B" d="M59.3,2.1c-0.1-0.8-1-1.4-1.8-1.3c-0.8,0.2-1.4,1-1.3,1.8c0.1,0.8,0.9,1.4,1.8,1.3
		C58.9,3.8,59.5,3,59.3,2.1"/>
	<path fill="#00539B" d="M55.8,2.7c-0.1-0.8-1-1.4-1.8-1.2c-0.8,0.2-1.4,1-1.2,1.9c0.2,0.8,1,1.4,1.9,1.2C55.5,4.4,56,3.5,55.8,2.7"
		/>
	<path fill="#00539B" d="M52.4,3.4c-0.2-0.8-1-1.3-1.9-1.1c-0.8,0.3-1.4,1.1-1.1,1.9c0.2,0.8,1,1.3,1.9,1.1
		C52.2,5.1,52.7,4.3,52.4,3.4"/>
	<path fill="#00539B" d="M49.1,4.3c-0.3-0.8-1.2-1.2-1.9-1c-0.8,0.3-1.3,1.2-1,1.9c0.3,0.8,1.2,1.3,2,1C48.9,6.1,49.3,5.2,49.1,4.3"
		/>
	<path fill="#00539B" d="M45.8,5.4c-0.3-0.8-1.2-1.2-2-0.9c-0.8,0.3-1.2,1.2-0.9,2c0.3,0.8,1.2,1.2,2,0.9
		C45.7,7.2,46.1,6.3,45.8,5.4"/>
	<path fill="#00539B" d="M42.5,6.7c-0.3-0.8-1.2-1.2-2-0.8c-0.8,0.4-1.2,1.3-0.8,2.1c0.4,0.8,1.3,1.2,2.1,0.8
		C42.5,8.4,42.9,7.5,42.5,6.7"/>
	<path fill="#00539B" d="M39.4,8.1C39,7.3,38,7,37.3,7.4c-0.8,0.4-1.1,1.4-0.7,2.1c0.4,0.7,1.4,1,2.1,0.6
		C39.4,9.8,39.7,8.9,39.4,8.1"/>
	<path fill="#00539B" d="M36.3,9.7c-0.5-0.7-1.4-1-2.1-0.5c-0.8,0.4-1,1.4-0.6,2.1c0.5,0.8,1.4,1,2.1,0.6
		C36.4,11.4,36.7,10.4,36.3,9.7"/>
	<path fill="#00539B" d="M33.2,11.4c-0.5-0.7-1.4-0.9-2.1-0.5c-0.8,0.5-1,1.5-0.5,2.2c0.5,0.7,1.4,0.9,2.1,0.5
		C33.5,13.1,33.7,12.2,33.2,11.4"/>
	<path fill="#00539B" d="M30.3,13.3c-0.5-0.7-1.5-0.8-2.2-0.3c-0.7,0.5-0.8,1.5-0.3,2.1c0.5,0.7,1.5,0.9,2.1,0.4
		C30.7,15,30.9,14,30.3,13.3"/>
	<path fill="#00539B" d="M27.5,15.4c-0.5-0.6-1.5-0.8-2.2-0.3c-0.6,0.6-0.8,1.5-0.3,2.2c0.6,0.7,1.5,0.8,2.2,0.3
		C28,17,28,16,27.5,15.4"/>
	<path fill="#00539B" d="M24.8,17.6c-0.6-0.6-1.5-0.7-2.2-0.1C22,18,21.9,19,22.5,19.7c0.6,0.6,1.5,0.7,2.2,0.1
		C25.3,19.2,25.4,18.2,24.8,17.6"/>
	<path fill="#00539B" d="M22.2,19.9c-0.6-0.6-1.6-0.6-2.2,0c-0.6,0.6-0.6,1.6,0,2.2c0.6,0.6,1.5,0.6,2.2,0
		C22.8,21.5,22.8,20.6,22.2,19.9"/>
	<path fill="#00539B" d="M19.8,22.4c-0.6-0.6-1.6-0.6-2.2,0.1c-0.6,0.6-0.6,1.6,0.1,2.2c0.6,0.6,1.7,0.5,2.2-0.1
		C20.4,24,20.4,22.9,19.8,22.4"/>
	<path fill="#00539B" d="M17.5,25c-0.7-0.6-1.7-0.5-2.2,0.2c-0.6,0.7-0.5,1.7,0.2,2.2c0.6,0.6,1.7,0.5,2.2-0.2
		C18.2,26.5,18.1,25.5,17.5,25"/>
	<path fill="#00539B" d="M15.3,27.7c-0.7-0.5-1.7-0.4-2.2,0.3c-0.5,0.7-0.4,1.7,0.3,2.2c0.7,0.5,1.7,0.3,2.2-0.3
		C16.1,29.2,15.9,28.2,15.3,27.7"/>
	<path fill="#00539B" d="M13.2,30.5C12.5,30,11.5,30.3,11,31c-0.5,0.7-0.3,1.7,0.5,2.1c0.7,0.5,1.7,0.3,2.1-0.5
		C14.1,32,13.9,31,13.2,30.5"/>
	<path fill="#00539B" d="M11.3,33.4C10.6,33,9.6,33.2,9.1,34c-0.4,0.7-0.1,1.7,0.6,2.1c0.8,0.4,1.7,0.2,2.1-0.6
		C12.3,34.8,12,33.9,11.3,33.4"/>
	<path fill="#00539B" d="M9.5,36.5c-0.7-0.4-1.7-0.1-2.1,0.6c-0.4,0.8-0.1,1.7,0.7,2.1c0.7,0.4,1.7,0.1,2.1-0.7
		C10.6,37.8,10.3,36.9,9.5,36.5"/>
	<path fill="#00539B" d="M8,39.6c-0.8-0.3-1.7,0-2.1,0.8c-0.3,0.8,0,1.7,0.8,2.1c0.8,0.4,1.7,0,2.1-0.8C9.1,40.8,8.8,39.9,8,39.6"/>
	<path fill="#00539B" d="M6.6,42.8c-0.8-0.3-1.7,0.1-2,0.8c-0.3,0.8,0.1,1.7,0.9,2.1c0.8,0.3,1.7-0.1,2-0.9
		C7.8,43.9,7.3,43,6.6,42.8"/>
	<path fill="#00539B" d="M5.3,46c-0.8-0.3-1.7,0.2-2,1c-0.3,0.8,0.2,1.7,1,1.9c0.8,0.3,1.7-0.2,1.9-1C6.6,47.2,6.1,46.3,5.3,46"/>
	<path fill="#00539B" d="M4.3,49.3c-0.8-0.3-1.7,0.3-1.9,1.1c-0.3,0.8,0.3,1.7,1.1,1.9c0.8,0.3,1.7-0.3,1.9-1.1
		C5.6,50.4,5.1,49.5,4.3,49.3"/>
	<path fill="#00539B" d="M3.3,52.7c-0.8-0.2-1.7,0.3-1.8,1.2c-0.2,0.8,0.3,1.7,1.2,1.9c0.8,0.2,1.7-0.4,1.9-1.2
		C4.7,53.7,4.2,52.9,3.3,52.7"/>
	<path fill="#00539B" d="M2.6,56.1C1.8,56,1,56.6,0.8,57.4c-0.1,0.8,0.5,1.6,1.3,1.7c0.9,0.1,1.7-0.5,1.8-1.3
		C4.1,57,3.5,56.2,2.6,56.1"/>
	<path fill="#00539B" d="M2.1,59.5c-0.9-0.1-1.7,0.5-1.7,1.4c-0.1,0.8,0.5,1.6,1.4,1.7c0.8,0.1,1.6-0.5,1.7-1.4
		C3.5,60.4,3,59.7,2.1,59.5"/>
	<path fill="#00539B" d="M1.7,63c-0.8-0.1-1.6,0.6-1.6,1.5c-0.1,0.8,0.6,1.5,1.4,1.6c0.9,0.1,1.6-0.6,1.7-1.5
		C3.3,63.8,2.6,63.1,1.7,63"/>
	<path fill="#00539B" d="M0,68c0-0.9,0.7-1.5,1.5-1.5c0.9,0,1.5,0.7,1.5,1.5c0,0.9-0.7,1.5-1.5,1.5C0.7,69.6,0,68.9,0,68"/>
	<path fill="#00539B" d="M1.5,70c-0.8,0.1-1.5,0.8-1.5,1.6c0.1,0.9,0.8,1.5,1.7,1.5c0.8-0.1,1.5-0.8,1.5-1.6
		C3.2,70.6,2.4,69.9,1.5,70"/>
	<path fill="#00539B" d="M1.7,73.4c-0.8,0.1-1.5,0.8-1.4,1.7c0.1,0.8,0.8,1.4,1.7,1.4c0.8-0.1,1.5-0.8,1.4-1.7
		C3.3,74,2.6,73.4,1.7,73.4"/>
	<path fill="#00539B" d="M2.1,76.9c-0.8,0.1-1.4,0.9-1.3,1.7c0.1,0.9,0.9,1.5,1.7,1.3c0.9-0.1,1.5-0.9,1.3-1.7
		C3.7,77.4,3,76.8,2.1,76.9"/>
	<path fill="#00539B" d="M2.6,80.3c-0.8,0.2-1.4,1-1.2,1.9c0.2,0.8,1,1.4,1.8,1.2c0.8-0.1,1.4-1,1.2-1.8C4.3,80.7,3.5,80.1,2.6,80.3
		"/>
	<path fill="#00539B" d="M3.4,83.7c-0.8,0.3-1.4,1.1-1.1,1.9c0.2,0.8,1,1.3,1.9,1.1c0.8-0.3,1.4-1.1,1.1-1.9
		C5.1,84,4.3,83.6,3.4,83.7"/>
	<path fill="#00539B" d="M4.3,87.1c-0.8,0.3-1.3,1.2-1,2c0.3,0.8,1.2,1.2,2,1c0.8-0.3,1.2-1.2,1-1.9C6,87.3,5.1,86.8,4.3,87.1"/>
	<path fill="#00539B" d="M5.4,90.4c-0.8,0.3-1.2,1.2-0.9,2c0.3,0.8,1.2,1.2,2,0.9c0.8-0.3,1.2-1.2,0.9-2C7.1,90.5,6.2,90.1,5.4,90.4
		"/>
	<path fill="#00539B" d="M6.6,93.7c-0.8,0.4-1.2,1.3-0.8,2.1c0.3,0.8,1.2,1.2,2.1,0.8c0.8-0.3,1.1-1.2,0.8-2.1
		C8.3,93.7,7.4,93.3,6.6,93.7"/>
	<path fill="#00539B" d="M8.1,96.9c-0.8,0.4-1.1,1.3-0.6,2.1c0.4,0.8,1.3,1.1,2.1,0.7c0.8-0.4,1.1-1.4,0.6-2.1
		C9.7,96.8,8.8,96.5,8.1,96.9"/>
	<path fill="#00539B" d="M9.7,100c-0.8,0.4-1,1.4-0.6,2.1c0.4,0.7,1.4,1,2.1,0.5c0.7-0.4,1-1.4,0.6-2.1C11.3,99.8,10.4,99.5,9.7,100
		"/>
	<g>
		<defs>
			<polyline id="SVGID_3_" points="0,0 0,136.3 136.2,136.3 136.2,0 			"/>
		</defs>
		<clipPath id="SVGID_4_">
			<use xlink:href="#SVGID_3_"  overflow="visible"/>
		</clipPath>
		<path clip-path="url(#SVGID_4_)" fill="#00539B" d="M69.8,1.5c0-0.8-0.8-1.5-1.6-1.5c-0.8,0.1-1.5,0.8-1.5,1.6
			c0.1,0.9,0.8,1.5,1.7,1.5C69.2,3,69.8,2.3,69.8,1.5"/>
	</g>
	<path fill="#00539B" d="M66.2,1.6c0-0.8-0.8-1.5-1.6-1.5c-0.8,0.1-1.5,0.8-1.5,1.6c0.1,0.9,0.8,1.5,1.7,1.5
		C65.6,3.2,66.3,2.5,66.2,1.6"/>
	<path fill="#00539B" d="M11.4,103c-0.7,0.5-1,1.4-0.5,2.1c0.5,0.7,1.4,0.9,2.1,0.5c0.7-0.5,0.9-1.4,0.5-2.1
		C13.1,102.7,12.1,102.5,11.4,103"/>
	<path fill="#00539B" d="M13.3,105.9c-0.7,0.5-0.8,1.5-0.3,2.1c0.5,0.7,1.5,0.9,2.2,0.4c0.6-0.5,0.8-1.5,0.3-2.2
		C14.9,105.5,14,105.4,13.3,105.9"/>
	<path fill="#00539B" d="M15.3,108.7c-0.6,0.5-0.8,1.5-0.2,2.1c0.5,0.7,1.5,0.8,2.1,0.3c0.7-0.5,0.8-1.5,0.3-2.2
		C17,108.3,16,108.2,15.3,108.7"/>
	<path fill="#00539B" d="M17.5,111.4c-0.6,0.5-0.7,1.5-0.1,2.2c0.6,0.6,1.5,0.6,2.2,0.1c0.6-0.5,0.7-1.5,0.1-2.2
		C19.1,110.9,18.2,110.9,17.5,111.4"/>
	<path fill="#00539B" d="M19.8,114c-0.6,0.6-0.6,1.5,0,2.2c0.6,0.6,1.6,0.6,2.2,0c0.6-0.6,0.6-1.6,0-2.2
		C21.5,113.4,20.5,113.4,19.8,114"/>
	<path fill="#00539B" d="M22.4,116.5c-0.6,0.6-0.5,1.6,0.1,2.2c0.6,0.6,1.7,0.5,2.2-0.1c0.6-0.6,0.6-1.6-0.1-2.2
		C23.9,115.8,22.9,115.8,22.4,116.5"/>
	<path fill="#00539B" d="M24.9,118.8c-0.5,0.6-0.5,1.7,0.2,2.2c0.7,0.5,1.7,0.5,2.2-0.3c0.6-0.6,0.5-1.6-0.2-2.2
		C26.4,118,25.4,118.1,24.9,118.8"/>
	<path fill="#00539B" d="M27.6,121c-0.5,0.7-0.4,1.7,0.3,2.2c0.7,0.5,1.7,0.3,2.2-0.4c0.5-0.6,0.3-1.6-0.3-2.1
		C29.1,120.1,28.2,120.3,27.6,121"/>
	<path fill="#00539B" d="M30.5,123c-0.5,0.7-0.3,1.7,0.5,2.1c0.7,0.5,1.7,0.3,2.1-0.5c0.5-0.7,0.3-1.7-0.5-2.1
		C31.9,122.1,30.9,122.3,30.5,123"/>
	<path fill="#00539B" d="M33.4,124.9c-0.5,0.8-0.2,1.7,0.6,2.1c0.7,0.5,1.7,0.2,2.1-0.6c0.5-0.7,0.2-1.7-0.6-2.1
		C34.8,123.9,33.8,124.2,33.4,124.9"/>
	<path fill="#00539B" d="M36.4,126.6c-0.4,0.8-0.1,1.7,0.6,2.1c0.8,0.4,1.7,0.1,2.1-0.7c0.4-0.8,0.1-1.7-0.7-2.1
		C37.7,125.6,36.8,125.9,36.4,126.6"/>
	<path fill="#00539B" d="M39.5,128.3c-0.3,0.8,0,1.7,0.8,2.1c0.8,0.3,1.7-0.1,2.1-0.8c0.4-0.8,0-1.7-0.8-2.1
		C40.8,127.1,39.9,127.5,39.5,128.3"/>
	<path fill="#00539B" d="M42.7,129.7c-0.3,0.8,0.1,1.7,0.8,2c0.8,0.3,1.7-0.1,2.1-0.9c0.3-0.8-0.1-1.7-0.9-2
		C43.9,128.5,43,128.8,42.7,129.7"/>
	<path fill="#00539B" d="M45.9,130.9c-0.3,0.8,0.2,1.7,1,1.9c0.8,0.3,1.7-0.1,1.9-1c0.3-0.8-0.2-1.7-1-1.9
		C47.1,129.6,46.2,130.1,45.9,130.9"/>
	<path fill="#00539B" d="M49.3,132c-0.3,0.8,0.3,1.7,1.1,1.9c0.8,0.3,1.7-0.3,1.9-1.1c0.3-0.8-0.3-1.7-1.1-1.9
		C50.3,130.6,49.5,131.2,49.3,132"/>
	<path fill="#00539B" d="M52.6,132.9c-0.2,0.8,0.3,1.6,1.2,1.8c0.8,0.2,1.7-0.3,1.9-1.2c0.2-0.8-0.4-1.7-1.2-1.9
		C53.6,131.5,52.8,132.1,52.6,132.9"/>
	<path fill="#00539B" d="M56,133.6c-0.1,0.8,0.5,1.6,1.3,1.7c0.8,0.1,1.6-0.4,1.7-1.3c0.1-0.8-0.5-1.6-1.3-1.7
		C56.9,132.2,56.2,132.8,56,133.6"/>
	<path fill="#00539B" d="M59.5,134.1c-0.1,0.8,0.5,1.6,1.4,1.7c0.8,0.1,1.6-0.5,1.7-1.4c0.1-0.8-0.5-1.6-1.4-1.7
		C60.3,132.6,59.6,133.3,59.5,134.1"/>
	<path fill="#00539B" d="M62.9,134.5c-0.1,0.8,0.6,1.5,1.5,1.6c0.8,0.1,1.5-0.6,1.6-1.5c0.1-0.8-0.6-1.5-1.5-1.6
		C63.7,133,63,133.6,62.9,134.5"/>
	<path fill="#00539B" d="M69.9,134.7c0.1,0.8,0.8,1.5,1.6,1.4c0.9,0,1.5-0.8,1.5-1.6c-0.1-0.8-0.8-1.5-1.6-1.5
		C70.5,133.1,69.8,133.8,69.9,134.7"/>
	<path fill="#00539B" d="M73.4,134.5c0.1,0.8,0.8,1.5,1.7,1.4c0.9-0.1,1.5-0.8,1.4-1.7c-0.1-0.9-0.8-1.5-1.7-1.4
		C73.9,132.9,73.3,133.6,73.4,134.5"/>
	<path fill="#00539B" d="M76.8,134.1c0.1,0.8,0.9,1.4,1.7,1.3c0.8-0.1,1.4-0.9,1.3-1.8c-0.1-0.8-0.9-1.4-1.7-1.3
		C77.3,132.4,76.7,133.3,76.8,134.1"/>
	<path fill="#00539B" d="M80.3,133.5c0.2,0.8,1,1.4,1.9,1.2c0.8-0.2,1.4-1,1.2-1.9c-0.1-0.8-1-1.4-1.8-1.2
		C80.6,131.9,80.1,132.7,80.3,133.5"/>
	<g>
		<defs>
			<polyline id="SVGID_5_" points="0,0 0,136.3 136.2,136.3 136.2,0 			"/>
		</defs>
		<clipPath id="SVGID_6_">
			<use xlink:href="#SVGID_5_"  overflow="visible"/>
		</clipPath>
		<path clip-path="url(#SVGID_6_)" fill="#00539B" d="M83.7,132.8c0.2,0.8,1.1,1.4,1.9,1.1c0.8-0.2,1.3-1,1.1-1.9
			c-0.3-0.8-1.1-1.4-1.9-1.1C83.9,131.2,83.5,132,83.7,132.8"/>
		<path clip-path="url(#SVGID_6_)" fill="#00539B" d="M66.5,134.7c-0.1,0.8,0.6,1.5,1.5,1.6c0.8,0.1,1.5-0.6,1.6-1.5
			c0.1-0.8-0.6-1.5-1.5-1.6C67.3,133.2,66.5,133.8,66.5,134.7"/>
	</g>
	<path fill="#00539B" d="M87,131.9c0.3,0.8,1.2,1.3,2,1c0.8-0.3,1.2-1.2,1-2c-0.3-0.8-1.2-1.2-1.9-1C87.2,130.3,86.8,131.1,87,131.9
		"/>
	<path fill="#00539B" d="M90.4,130.8c0.3,0.8,1.2,1.2,2,0.9c0.8-0.3,1.2-1.2,0.9-2c-0.3-0.8-1.2-1.2-2-0.9
		C90.4,129.2,90.1,130.1,90.4,130.8"/>
	<path fill="#00539B" d="M93.6,129.6c0.4,0.8,1.3,1.2,2.1,0.8c0.8-0.3,1.2-1.2,0.8-2.1c-0.3-0.8-1.2-1.1-2.1-0.8
		C93.6,127.9,93.3,128.8,93.6,129.6"/>
	<path fill="#00539B" d="M96.8,128.2c0.4,0.8,1.3,1.1,2.1,0.7c0.8-0.5,1.1-1.4,0.7-2.1c-0.5-0.8-1.4-1.1-2.1-0.6
		C96.7,126.5,96.4,127.4,96.8,128.2"/>
	<path fill="#00539B" d="M99.9,126.6c0.4,0.8,1.4,1,2.1,0.6c0.7-0.4,1-1.4,0.5-2.1c-0.4-0.7-1.4-1-2.1-0.6
		C99.7,124.9,99.5,125.9,99.9,126.6"/>
	<path fill="#00539B" d="M102.9,124.8c0.5,0.7,1.5,1,2.2,0.5c0.7-0.5,0.9-1.4,0.5-2.1c-0.5-0.7-1.4-0.9-2.1-0.5
		C102.6,123.2,102.4,124.1,102.9,124.8"/>
	<path fill="#00539B" d="M105.8,123c0.5,0.7,1.5,0.8,2.1,0.3c0.7-0.5,0.9-1.5,0.4-2.1c-0.5-0.7-1.5-0.9-2.2-0.4
		C105.5,121.3,105.3,122.3,105.8,123"/>
	<path fill="#00539B" d="M108.7,120.9c0.5,0.6,1.5,0.8,2.1,0.3c0.7-0.6,0.8-1.5,0.3-2.2c-0.5-0.7-1.5-0.8-2.2-0.3
		C108.2,119.2,108.1,120.3,108.7,120.9"/>
	<path fill="#00539B" d="M111.4,118.7c0.5,0.6,1.5,0.7,2.2,0.1c0.6-0.6,0.6-1.5,0.1-2.2c-0.5-0.6-1.5-0.7-2.2-0.1
		C110.8,117.1,110.8,118.1,111.4,118.7"/>
	<path fill="#00539B" d="M114,116.4c0.6,0.6,1.5,0.6,2.2,0c0.6-0.6,0.6-1.6,0-2.2c-0.6-0.6-1.6-0.6-2.2,0
		C113.3,114.8,113.3,115.8,114,116.4"/>
	<path fill="#00539B" d="M116.4,113.9c0.6,0.6,1.6,0.6,2.2-0.1c0.6-0.6,0.5-1.6-0.1-2.2c-0.6-0.6-1.6-0.5-2.2,0.1
		C115.7,112.3,115.8,113.4,116.4,113.9"/>
	<path fill="#00539B" d="M118.7,111.3c0.6,0.6,1.7,0.5,2.2-0.2c0.5-0.7,0.5-1.7-0.3-2.2c-0.6-0.6-1.6-0.5-2.1,0.2
		C117.9,109.8,118.1,110.8,118.7,111.3"/>
	<path fill="#00539B" d="M120.9,108.6c0.7,0.5,1.7,0.4,2.2-0.3c0.5-0.7,0.3-1.7-0.4-2.2c-0.6-0.5-1.6-0.3-2.1,0.4
		C120.1,107.1,120.2,108.1,120.9,108.6"/>
	<path fill="#00539B" d="M123,105.8c0.7,0.5,1.7,0.3,2.1-0.5c0.5-0.7,0.3-1.7-0.5-2.1c-0.7-0.5-1.7-0.3-2.1,0.5
		C122.1,104.4,122.3,105.3,123,105.8"/>
	<path fill="#00539B" d="M124.8,102.9c0.8,0.5,1.7,0.2,2.1-0.6c0.5-0.7,0.2-1.7-0.6-2.1c-0.7-0.4-1.7-0.1-2.1,0.6
		C123.9,101.5,124.1,102.4,124.8,102.9"/>
	<path fill="#00539B" d="M133.1,68.2c0-0.9,0.7-1.5,1.5-1.5c0.9,0,1.5,0.7,1.5,1.5c0,0.9-0.7,1.5-1.5,1.5
		C133.8,69.8,133.1,69.1,133.1,68.2"/>
	<path fill="#00539B" d="M134.6,66.3c0.8-0.1,1.5-0.8,1.5-1.7c-0.1-0.8-0.8-1.5-1.6-1.4c-0.9,0-1.5,0.8-1.5,1.6
		C133.1,65.6,133.8,66.3,134.6,66.3"/>
	<path fill="#00539B" d="M126.6,99.9c0.8,0.4,1.7,0.1,2.1-0.6c0.4-0.8,0.1-1.7-0.7-2.1c-0.8-0.4-1.7-0.1-2.1,0.7
		C125.5,98.6,125.8,99.5,126.6,99.9"/>
	<path fill="#00539B" d="M128.2,96.8c0.8,0.3,1.7,0,2.1-0.8c0.3-0.8,0-1.7-0.8-2.1c-0.8-0.3-1.7,0-2,0.8
		C127,95.5,127.4,96.4,128.2,96.8"/>
	<path fill="#00539B" d="M129.6,93.6c0.8,0.3,1.7-0.1,2-0.9c0.3-0.8-0.1-1.7-0.9-2c-0.8-0.3-1.7,0.1-2,0.8
		C128.4,92.4,128.8,93.3,129.6,93.6"/>
	<path fill="#00539B" d="M130.8,90.3c0.8,0.3,1.7-0.2,1.9-1c0.3-0.8-0.1-1.7-1-2c-0.8-0.3-1.7,0.2-1.9,1
		C129.6,89.2,130,90.1,130.8,90.3"/>
	<path fill="#00539B" d="M131.9,87c0.8,0.2,1.7-0.3,1.9-1.1c0.3-0.8-0.3-1.7-1.1-1.9c-0.8-0.2-1.7,0.3-1.9,1.1
		C130.6,85.9,131.1,86.8,131.9,87"/>
	<path fill="#00539B" d="M132.8,83.7c0.8,0.1,1.7-0.4,1.8-1.2c0.2-0.8-0.3-1.7-1.2-1.9c-0.8-0.1-1.7,0.4-1.9,1.2
		C131.4,82.7,132,83.5,132.8,83.7"/>
	<path fill="#00539B" d="M133.5,80.3c0.8,0.1,1.6-0.5,1.8-1.3c0.1-0.9-0.5-1.7-1.3-1.8c-0.9-0.1-1.7,0.5-1.8,1.3
		C132.1,79.3,132.7,80.1,133.5,80.3"/>
	<path fill="#00539B" d="M134.1,76.8c0.9,0.1,1.7-0.5,1.7-1.4c0.1-0.8-0.5-1.6-1.4-1.7c-0.9-0.1-1.7,0.5-1.7,1.4
		C132.6,76,133.2,76.7,134.1,76.8"/>
	<path fill="#00539B" d="M134.4,73.3c0.8,0.1,1.6-0.6,1.6-1.4c0.1-0.9-0.6-1.6-1.4-1.7c-0.9,0-1.6,0.6-1.7,1.5
		C133,72.5,133.6,73.3,134.4,73.3"/>
	<path fill="#00539B" d="M134.4,62.8c0.9-0.1,1.5-0.9,1.4-1.7c-0.1-0.8-0.9-1.5-1.7-1.4c-0.8,0.1-1.5,0.8-1.4,1.7
		C132.8,62.2,133.6,62.9,134.4,62.8"/>
	<path fill="#00539B" d="M134.1,59.3c0.9-0.1,1.5-1,1.4-1.8c-0.2-0.8-1-1.4-1.8-1.3c-0.8,0.1-1.4,1-1.3,1.8
		C132.4,58.9,133.2,59.5,134.1,59.3"/>
	<path fill="#00539B" d="M133.5,55.9c0.8-0.1,1.4-1,1.2-1.8c-0.1-0.8-1-1.4-1.8-1.2c-0.8,0.2-1.4,1-1.2,1.9
		C131.9,55.5,132.7,56,133.5,55.9"/>
	<path fill="#00539B" d="M132.8,52.5c0.8-0.3,1.3-1.1,1.1-1.9c-0.3-0.8-1.1-1.3-1.9-1.1c-0.8,0.2-1.3,1.1-1.1,1.9
		C131.1,52.2,132,52.7,132.8,52.5"/>
	<path fill="#00539B" d="M131.9,49.1c0.8-0.3,1.3-1.1,1-1.9c-0.3-0.8-1.2-1.3-1.9-1c-0.8,0.3-1.3,1.1-1,1.9
		C130.2,49,131.1,49.4,131.9,49.1"/>
	<path fill="#00539B" d="M130.8,45.8c0.8-0.3,1.2-1.2,0.9-2c-0.3-0.8-1.2-1.2-2.1-0.9c-0.8,0.3-1.2,1.2-0.8,2
		C129.1,45.7,130,46.1,130.8,45.8"/>
	<path fill="#00539B" d="M129.5,42.6c0.8-0.4,1.2-1.3,0.8-2.1c-0.3-0.8-1.2-1.2-2-0.8c-0.8,0.4-1.2,1.3-0.8,2.1
		C127.9,42.5,128.8,42.9,129.5,42.6"/>
	<path fill="#00539B" d="M128.1,39.4c0.8-0.4,1.1-1.3,0.7-2.1c-0.4-0.8-1.4-1.1-2.1-0.7c-0.8,0.4-1,1.4-0.6,2.1
		C126.5,39.4,127.4,39.7,128.1,39.4"/>
	<path fill="#00539B" d="M126.5,36.3c0.8-0.5,1-1.4,0.6-2.1c-0.4-0.7-1.4-1-2.1-0.6c-0.7,0.5-1,1.4-0.6,2.1
		C124.8,36.5,125.8,36.7,126.5,36.3"/>
	<path fill="#00539B" d="M124.8,33.2c0.7-0.5,1-1.4,0.5-2.1c-0.5-0.7-1.4-1-2.1-0.5c-0.7,0.5-0.9,1.4-0.5,2.1
		C123.1,33.5,124.1,33.7,124.8,33.2"/>
	<path fill="#00539B" d="M122.9,30.3c0.7-0.5,0.8-1.5,0.3-2.2c-0.5-0.7-1.5-0.8-2.2-0.3c-0.6,0.5-0.8,1.5-0.3,2.2
		C121.2,30.7,122.2,30.9,122.9,30.3"/>
	<path fill="#00539B" d="M120.8,27.5c0.6-0.5,0.8-1.5,0.2-2.2c-0.5-0.6-1.5-0.8-2.1-0.2c-0.7,0.5-0.8,1.5-0.3,2.2
		C119.2,28,120.2,28.1,120.8,27.5"/>
	<path fill="#00539B" d="M118.7,24.8c0.6-0.6,0.6-1.5,0.1-2.2c-0.6-0.6-1.6-0.7-2.2-0.1c-0.6,0.6-0.7,1.6-0.1,2.2
		C117,25.3,118,25.4,118.7,24.8"/>
	<path fill="#00539B" d="M116.3,22.2c0.6-0.6,0.6-1.6,0.1-2.2c-0.6-0.6-1.6-0.6-2.3,0c-0.6,0.6-0.6,1.6,0,2.2
		C114.7,22.9,115.7,22.9,116.3,22.2"/>
	<path fill="#00539B" d="M113.8,19.8c0.6-0.6,0.5-1.6-0.1-2.2c-0.6-0.6-1.6-0.5-2.2,0.1c-0.6,0.6-0.5,1.6,0.1,2.2
		C112.3,20.5,113.2,20.4,113.8,19.8"/>
	<path fill="#00539B" d="M111.2,17.5c0.5-0.7,0.5-1.7-0.3-2.2c-0.6-0.6-1.6-0.5-2.2,0.2c-0.5,0.7-0.4,1.7,0.3,2.2
		C109.7,18.2,110.7,18.1,111.2,17.5"/>
	<polyline fill="#00539B" points="59.9,22.5 70.1,25.2 66.9,21.8 59.9,22.5 	"/>
	<polyline fill="#FFC425" points="59.9,22.5 64.7,27.5 63.8,33.8 70.1,25.2 59.9,22.5 	"/>
	<polygon fill="none" stroke="#00539B" stroke-width="0.2577" stroke-miterlimit="10" points="59.9,22.5 64.7,27.5 63.8,33.8 
		70.1,25.2 59.9,22.5 	"/>
	<polyline fill="#FFC425" points="76,34.5 70.1,25.2 69.6,30.9 76,34.5 	"/>
	<polygon fill="none" stroke="#00539B" stroke-width="0.2577" stroke-miterlimit="10" points="76,34.5 70.1,25.2 69.6,30.9 76,34.5 
			"/>
	<polyline fill="#FFC425" points="79.6,22.9 73.5,22 69.9,16.1 70.1,25.2 75.1,27.3 79.6,22.9 	"/>
	<polygon fill="none" stroke="#00539B" stroke-width="0.2577" stroke-miterlimit="10" points="79.6,22.9 73.5,22 69.9,16.1 
		70.1,25.2 75.1,27.3 79.6,22.9 	"/>
	<polyline fill="#00539B" points="69.9,16.1 70.1,25.4 73.5,22 69.9,16.1 	"/>
	<polygon fill="none" stroke="#00539B" stroke-width="0.2577" stroke-miterlimit="10" points="69.9,16.1 70.1,25.4 73.5,22 
		69.9,16.1 	"/>
	<path fill="none" stroke="#00539B" stroke-width="0.1933" stroke-miterlimit="10" d="M77.2,25.2l-5.2,0 M77.7,24.6l-4.2,0
		 M78.4,24.1l-1.9,0 M79,23.6l-1.8,0 M79.3,23.3l-1.8,0 M76.8,25.8l-4.2,0"/>
	<polyline fill="#00539B" points="75.1,27.3 70.1,25.2 76,34.5 75.1,27.3 	"/>
	<polyline fill="#00539B" points="69.6,30.9 70.1,25.2 63.8,33.8 69.6,30.9 	"/>
	<polyline fill="#FFC425" points="66.9,21.8 69.9,16.1 70.1,25.2 66.9,21.8 	"/>
	<polygon fill="none" stroke="#00539B" stroke-width="0.1288" stroke-miterlimit="10" points="66.9,21.8 69.9,16.1 70.1,25.2 
		66.9,21.8 	"/>
</g>
</svg>
