<?xml version="1.0" encoding="utf-8"?>
<!-- Generator: Adobe Illustrator 19.1.0, SVG Export Plug-In . SVG Version: 6.00 Build 0)  -->
<svg version="1.1" id="Layer_1" xmlns="http://www.w3.org/2000/svg" xmlns:xlink="http://www.w3.org/1999/xlink" x="0px" y="0px"
	 viewBox="0 0 154 62.9" enable-background="new 0 0 154 62.9" xml:space="preserve">
<g>
	<defs>
		<rect id="SVGID_1_" width="154" height="62.9"/>
	</defs>
	<clipPath id="SVGID_2_">
		<use xlink:href="#SVGID_1_"  overflow="visible"/>
	</clipPath>
	<g clip-path="url(#SVGID_2_)">
		<defs>
			<rect id="SVGID_3_" x="-51.4" y="-31.7" width="254.3" height="127.1"/>
		</defs>
		<clipPath id="SVGID_4_">
			<use xlink:href="#SVGID_3_"  overflow="visible"/>
		</clipPath>
		<path clip-path="url(#SVGID_4_)" fill="#373535" d="M18.1,0.8v1.5c-3.9,0.3-4.3,0.6-4.3,6.5v11.4c0,8.6,2.7,13.4,8.9,13.4
			c6.3,0,9.5-5,9.5-14.4v-3.2c0-6.2-0.3-9.2-0.5-10.8c-0.3-1.9-1.7-2.6-5.1-2.8V0.8h12.8v1.5c-2.6,0.1-4,0.9-4.2,2.8
			c-0.2,1.6-0.5,4.7-0.5,10.8v3.8c0,5.2-0.9,9.7-3.8,12.9c-2.3,2.6-6,4-9.7,4c-3.2,0-6.7-0.6-9.3-2.8c-2.8-2.3-3.9-6.2-3.9-12.6V8.8
			c0-5.8-0.4-6.2-4.6-6.5V0.8H18.1z"/>
		<path clip-path="url(#SVGID_4_)" fill="#373535" d="M107.5,9.1c-1.1-3.1-2.9-6.9-7.9-6.9c-3.9,0-6.1,2.6-6.1,5.7
			c0,3,2.4,5,6.9,6.9l1.5,0.6c4.6,1.9,8.8,4.8,8.8,10.4c0,6.4-5.5,11-13.5,11c-2.3,0-4.4-0.4-5.9-0.9c-1.7-0.5-2.7-0.9-3.4-1.1
			c-0.5-1.4-1.2-5.1-1.8-8.4l1.8-0.5c1.2,2.8,4.4,8.8,10.5,8.8c3.9,0,6.2-2.8,6.2-6.1c0-3-1.6-5.2-6.3-7.3l-1.9-0.9
			c-3.9-1.8-8.9-4.7-8.9-10C87.7,4.6,92.4,0,100.3,0c1.6,0,3.7,0.2,5.4,0.8c0.9,0.3,1.8,0.4,2.5,0.8c0.2,1.9,0.6,4.3,1.2,7.2
			L107.5,9.1z"/>
		<path clip-path="url(#SVGID_4_)" fill="#373535" d="M74.4,10.1c-1.7-6.2-5-8-9.8-8c-8.6,0-12.5,7.4-12.5,15.4
			c0,10.1,4.8,17,12.5,17c5.7,0,8.3-3,11-8.8l1.5,0.3c-0.6,2.6-1.8,6.9-2.6,9c-1.5,0.4-6.2,1.6-9.8,1.6c-13.7,0-19.3-9.2-19.3-17.8
			c0-11.3,8.5-19,20.2-19c4.5,0,8,1.1,9.4,1.4c0.4,3,0.6,5.4,0.9,8.5L74.4,10.1z"/>
		<path clip-path="url(#SVGID_4_)" fill="#373535" d="M130.2,5.6c0-1.3,0-2.2,0.5-2.4c0.3-0.2,1.1-0.3,2.6-0.3
			c3.5,0,7.2,1.6,7.2,6.6c0,4.5-3.1,6.7-8,6.7h-2.3V5.6z M119.2,0.8v1.5c4.1,0.3,4.6,0.8,4.6,6.6v18.9c0,5.9-0.5,6.3-5,6.6v1.5h14.3
			c4.2,0,8.3-0.6,11-2.1c3.2-1.8,5.2-4.3,5.2-8.2c0-5.4-4.5-8.4-10.4-9v-0.1c3.4-0.6,8.1-3.1,8.1-7.7c0-2.9-1.2-4.9-3.2-6.2
			c-2.1-1.2-4.4-1.8-8.9-1.8H119.2z M132.1,18c5.9,0,10.1,2.6,10.1,8.1c0,5.6-3.9,7.6-7.7,7.6c-3.7,0.1-4.4-1-4.4-6.1V18H132.1z"/>
		<path clip-path="url(#SVGID_4_)" fill="#373535" d="M95.5,48.7C84,38.5,53.5,44.6,42,49.3c-16,6.1-31,14.7-41.8,7.8
			C0.1,57,0,57,0,57c0,0.1,0,0.2,0.1,0.3c12,10.1,41.8,4.6,53.2-0.3c16.1-6.2,31.4-14.9,42.1-8c0.1,0,0.2,0,0.2-0.1
			C95.6,48.9,95.6,48.8,95.5,48.7"/>
		<path clip-path="url(#SVGID_4_)" fill="#373535" d="M153.9,48.7c-11.4-10.2-41.8-4.1-53.5,0.6c-16,6.1-30.9,14.7-41.7,7.8
			C58.7,57,58.6,57,58.5,57c0,0.1,0,0.2,0.1,0.3c12,10.1,41.7,4.6,53.1-0.3c16.1-6.2,31.4-14.9,42.1-8c0.1,0,0.2,0,0.2-0.1
			C154,48.9,154,48.8,153.9,48.7"/>
	</g>
</g>
</svg>
