<?xml version="1.0" encoding="utf-8"?>
<!-- Generator: Adobe Illustrator 19.1.0, SVG Export Plug-In . SVG Version: 6.00 Build 0)  -->
<svg version="1.1" id="Layer_1" xmlns="http://www.w3.org/2000/svg" xmlns:xlink="http://www.w3.org/1999/xlink" x="0px" y="0px"
	 viewBox="0 0 245.1 17.8" enable-background="new 0 0 245.1 17.8" xml:space="preserve">
<g>
	<path d="M13.4,10.4c0,4.8-2.4,7.4-6.7,7.4S0,15.2,0,10.4V0.3h2.5v9.8c0,3.3,1,5.6,4.2,5.6c3.2,0,4.2-2.3,4.2-5.6V0.3h2.5V10.4z"/>
	<path d="M27.7,3.1c-1.1-0.6-2.3-1-3.5-1c-4,0-6.6,2.9-6.6,6.7c0,4,2.9,6.7,6.5,6.7c1.2,0,2.9-0.3,3.7-0.8l0.1,2.4
		c-1.3,0.5-2.9,0.6-3.9,0.6c-5.4,0-9.1-3.5-9.1-9C14.9,3.5,18.8,0,24,0c1.3,0,2.6,0.2,3.9,0.7L27.7,3.1z"/>
	<path d="M40.6,13.3c1.2,0.6,2.8,1.1,4.7,1.1c1.5,0,2.8-0.3,2.8-1.7c0-3.2-8.1-1.2-8.1-7.4c0-4.1,4-5.3,7.5-5.3
		c1.7,0,3.3,0.2,4.4,0.6l-0.3,3.5c-1.2-0.5-2.5-0.8-3.8-0.8c-1.2,0-3.1,0.1-3.1,1.6c0,2.8,8.1,0.9,8.1,7.1c0,4.5-3.7,5.7-7.6,5.7
		c-1.6,0-3.6-0.2-5.1-0.7L40.6,13.3z"/>
	<path d="M58.8,0.3h5.6L71,17.5h-5l-1.3-3.7h-6.5l-1.4,3.7h-4.7L58.8,0.3z M61.6,3.8L61.6,3.8l-2.3,6.7h4.3L61.6,3.8z"/>
	<path d="M71.9,0.3h5.8L83.6,12h0L83.5,0.3h4.2v17.2H82L76,5.7h0l0.1,11.8h-4.2V0.3z"/>
	<path d="M93,3.7h-4.2V0.3h13.1v3.4h-4.2v13.8H93V3.7z"/>
	<path d="M105.5,0.3h5.6l6.6,17.2h-5l-1.3-3.7H105l-1.4,3.7H99L105.5,0.3z M108.3,3.8L108.3,3.8l-2.3,6.7h4.3L108.3,3.8z"/>
	<path d="M127,0.3h7.9c3.2,0,5.6,1.4,5.6,4.4c0,2.2-1.1,3.4-3,4v0c2.3,0.5,3.5,1.7,3.5,3.8c0,4.1-3.6,5-6.7,5H127V0.3z M131.6,7.1
		h1.3c1.5,0,3.1-0.4,3.1-1.8c0-1.6-1.5-1.7-3-1.7h-1.3V7.1z M131.6,14.2h1.4c1.7,0,3.4-0.2,3.4-2c0-1.9-1.8-2-3.4-2h-1.4V14.2z"/>
	<path d="M147.2,0.3h5.6l6.6,17.2h-5l-1.3-3.7h-6.5l-1.4,3.7h-4.7L147.2,0.3z M150,3.8L150,3.8l-2.3,6.7h4.3L150,3.8z"/>
	<path d="M160.6,0.3h8.2c3.1,0,5.5,1.4,5.5,4.3c0,2.3-1.1,3.8-3.3,4.3v0c1.5,0.4,1.6,1.7,2.4,3.8l1.7,4.7h-4.8l-1-3.1
		c-0.9-3-1.5-3.7-3.2-3.7h-1v6.8h-4.6V0.3z M165.2,7.4h1.2c1.5,0,3.4,0,3.4-2c0-1.6-1.6-1.9-3.4-1.9h-1.2V7.4z"/>
	<path d="M176.6,0.3h7.9c3.2,0,5.6,1.4,5.6,4.4c0,2.2-1.1,3.4-3,4v0c2.3,0.5,3.5,1.7,3.5,3.8c0,4.1-3.6,5-6.7,5h-7.2V0.3z
		 M181.1,7.1h1.3c1.5,0,3.1-0.4,3.1-1.8c0-1.6-1.5-1.7-3-1.7h-1.3V7.1z M181.1,14.2h1.4c1.7,0,3.4-0.2,3.4-2c0-1.9-1.8-2-3.4-2h-1.4
		V14.2z"/>
	<path d="M197.3,0.3h5.6l6.6,17.2h-5l-1.3-3.7h-6.5l-1.4,3.7h-4.7L197.3,0.3z M200.1,3.8L200.1,3.8l-2.3,6.7h4.3L200.1,3.8z"/>
	<path d="M210.7,0.3h8.2c3.1,0,5.5,1.4,5.5,4.3c0,2.3-1.1,3.8-3.3,4.3v0c1.5,0.4,1.6,1.7,2.4,3.8l1.7,4.7h-4.8l-1-3.1
		c-0.9-3-1.5-3.7-3.2-3.7h-1v6.8h-4.6V0.3z M215.3,7.4h1.2c1.5,0,3.4,0,3.4-2c0-1.6-1.6-1.9-3.4-1.9h-1.2V7.4z"/>
	<path d="M232.9,0.3h5.6l6.6,17.2h-5l-1.3-3.7h-6.5l-1.4,3.7h-4.7L232.9,0.3z M235.7,3.8L235.7,3.8l-2.3,6.7h4.3L235.7,3.8z"/>
</g>
</svg>
